<svg width="178" height="511" viewBox="0 0 178 511" fill="none" xmlns="http://www.w3.org/2000/svg">
<path d="M88.8085 2.02076C88.8085 2.02076 111.447 0.627863 113.228 20.6626C114.128 30.7659 113.228 32.8266 113.228 32.8266C113.228 32.8266 119.51 31.9298 119.242 38.7321C118.973 45.5344 112.51 48.6636 112.51 48.6636C112.51 48.6636 110.949 60.4364 103.987 63.642C97.9729 66.4182 107.75 82.6559 130.503 84.2587C142.311 85.0983 158.111 95.1252 160.534 119.405C162.957 143.686 162.286 142.617 167.266 156.298C172.246 169.979 166.816 175.837 172.562 196.587C178.307 217.337 174.592 256.863 175.971 277.623C176.689 288.394 163.943 297.123 161.97 295.692C159.998 294.261 169.153 287.106 169.689 281.029C170.225 274.952 168.434 267.796 164.479 265.821C160.524 263.847 157.479 274.408 154.961 272.614C152.442 270.821 163.579 260.45 159.806 247.571C156.033 234.691 143.651 201.424 145.978 187.113C148.305 172.803 131.796 141.224 131.078 140.432C127.199 136.139 126.405 196.234 132.438 215.553C136.383 228.204 141.315 268.216 139.514 288.394C137.724 308.572 128.023 342.917 128.923 358.659C129.823 374.4 131.106 375.116 132.438 386.564C133.769 398.013 131.432 418.047 129.105 426.815C126.778 435.583 112.404 465.272 114.204 477.436C115.995 489.6 127.314 502.48 130.905 503.377C134.496 504.273 133.96 508.738 131.442 508.919C128.923 509.101 95.8948 508.919 95.8948 508.919C95.8948 508.919 94.6404 491.031 97.5132 479.049C100.386 467.066 98.9496 443.453 97.1589 429.324C95.3682 415.195 99.0167 396.114 99.4955 384.427C99.9456 373.513 97.7047 361.349 96.0864 354.194C94.468 347.039 93.4817 269.409 88.9042 269.409H89.0958C84.5184 269.409 83.532 347.039 81.9136 354.194C80.2953 361.349 78.0544 373.513 78.5045 384.427C78.9833 396.114 82.6318 415.195 80.8411 429.324C79.0504 443.453 77.6139 467.066 80.4868 479.049C83.3596 491.031 82.1052 508.919 82.1052 508.919C82.1052 508.919 49.0674 509.101 46.5584 508.919C44.0495 508.738 43.5036 504.273 47.0947 503.377C50.6857 502.48 61.9952 489.6 63.7955 477.436C65.5863 465.272 51.2316 435.583 48.895 426.815C46.5584 418.047 44.2314 398.013 45.5625 386.564C46.8936 375.116 48.1768 374.4 49.0769 358.659C49.9771 342.917 40.2764 308.572 38.4857 288.394C36.695 268.216 41.6171 228.194 45.5625 215.553C51.5955 196.234 50.8007 136.139 46.9223 140.432C46.2041 141.234 29.6852 172.803 32.0218 187.113C34.3584 201.424 21.9668 234.691 18.1938 247.571C14.4208 260.45 25.5579 270.821 23.0393 272.614C20.5208 274.408 17.4756 263.847 13.5206 265.821C9.56566 267.796 7.77491 274.942 8.31118 281.029C8.84745 287.115 18.0023 294.261 16.0296 295.692C14.0569 297.123 1.311 288.394 2.02921 277.623C3.41776 256.873 -0.307375 217.337 5.43833 196.587C11.184 175.837 5.75434 169.979 10.734 156.298C15.7136 142.617 15.0432 143.686 17.466 119.405C19.8888 95.1252 35.6895 85.0887 47.4969 84.2587C70.2594 82.6464 80.0271 66.4087 74.0133 63.642C67.0514 60.4364 65.4905 48.6636 65.4905 48.6636C65.4905 48.6636 59.0266 45.5344 58.7585 38.7321C58.4903 31.9393 64.7723 32.8266 64.7723 32.8266C64.7723 32.8266 63.8721 30.7659 64.7723 20.6626C66.5343 0.627863 89.1724 2.02076 89.1724 2.02076" stroke="#00DEA2" stroke-width="3" stroke-miterlimit="10"/>
</svg>
