<svg width="98" height="19" viewBox="0 0 98 19" fill="none" xmlns="http://www.w3.org/2000/svg">
<path d="M26 13.7941V4.13343H29.7895C31.9912 4.13343 33.2455 5.48112 33.2455 7.38924C33.2455 9.32404 31.9645 10.645 29.7362 10.645H28.0015V13.7941H26ZM28.0015 9.03048H29.4159C30.6035 9.03048 31.1773 8.36331 31.1773 7.38924C31.1773 6.42851 30.6035 5.77468 29.4159 5.77468H28.0015V9.03048Z" fill="#3D3D3D"/>
<path d="M34.6861 5.78802V4.13343H42.5987V5.78802H39.6365V13.7941H37.6483V5.78802H34.6861Z" fill="#3D3D3D"/>
<path d="M44.3862 13.7941V4.13343H48.2291C50.3641 4.13343 51.4316 5.16088 51.4316 6.61532C51.4316 7.74951 50.6977 8.45671 49.6969 8.68355V8.77696C50.7911 8.83033 51.8185 9.69766 51.8185 11.1254C51.8185 12.6599 50.671 13.7941 48.4827 13.7941H44.3862ZM48.0824 12.1395C49.2432 12.1395 49.7369 11.6591 49.7369 10.9386C49.7369 10.1246 49.1231 9.55088 48.1357 9.55088H46.3877V12.1395H48.0824ZM47.9356 8.1765C48.7762 8.1765 49.4034 7.70948 49.4034 6.93556C49.4034 6.2417 48.8963 5.76134 47.9756 5.76134H46.3877V8.1765H47.9356Z" fill="#3D3D3D"/>
<path d="M53.6327 13.7941V4.13343H57.4222C59.6239 4.13343 60.8782 5.37438 60.8782 7.28249C60.8782 8.60349 60.2711 9.56422 59.1702 10.0312L61.2251 13.7941H59.0101L57.1687 10.3648H55.6342V13.7941H53.6327ZM55.6342 8.73693H57.0486C58.2362 8.73693 58.81 8.24322 58.81 7.28249C58.81 6.30842 58.2362 5.77468 57.0486 5.77468H55.6342V8.73693Z" fill="#3D3D3D"/>
<path d="M71.6592 8.96377C71.6592 12.1128 69.6977 13.9275 67.1491 13.9275C64.5738 13.9275 62.6256 12.0995 62.6256 8.96377C62.6256 5.81471 64.5738 4 67.1491 4C69.6977 4 71.6592 5.81471 71.6592 8.96377ZM69.6176 8.96377C69.6176 6.89553 68.6435 5.77468 67.1491 5.77468C65.6546 5.77468 64.6672 6.89553 64.6672 8.96377C64.6672 11.032 65.6546 12.1529 67.1491 12.1529C68.6435 12.1529 69.6176 11.032 69.6176 8.96377Z" fill="#3D3D3D"/>
<path d="M77.3424 13.7941V4.13343H83.7072V5.78802H79.3439V8.13647H83.2936V9.79106H79.3439V13.7941H77.3424Z" fill="#3D3D3D"/>
<path d="M87.5763 4.13343V13.7941H85.5748V4.13343H87.5763Z" fill="#3D3D3D"/>
<path d="M89.3771 5.78802V4.13343H97.2898V5.78802H94.3276V13.7941H92.3394V5.78802H89.3771Z" fill="#3D3D3D"/>
<path fill-rule="evenodd" clip-rule="evenodd" d="M2.77083 0C1.24054 0 0 1.24054 0 2.77083V3.5625H19V2.77083C19 1.24054 17.7595 0 16.2292 0H2.77083ZM19 5.9375H15.3888V19H16.2292C17.7595 19 19 17.7595 19 16.2292V5.9375ZM13.0138 19V5.9375H7.93494V12.6342C7.93494 13.2901 7.40327 13.8217 6.74744 13.8217H0.791667V18.1683C1.29458 18.6816 1.99552 19 2.77083 19H13.0138ZM0 11.4467H5.55994V5.9375H0V11.4467Z" fill="#00DEA2"/>
</svg>
