<svg width="340" height="215" viewBox="0 0 340 215" fill="none" xmlns="http://www.w3.org/2000/svg">
<g filter="url(#filter0_d_1383_1185)">
<rect x="5" y="1" width="330" height="205" rx="7" fill="white"/>
</g>
<path d="M150.304 188V185.977L154.548 182.261C154.866 181.973 155.137 181.71 155.361 181.472C155.584 181.229 155.755 180.987 155.872 180.744C155.989 180.498 156.048 180.231 156.048 179.943C156.048 179.621 155.978 179.347 155.838 179.119C155.698 178.888 155.505 178.71 155.258 178.585C155.012 178.46 154.73 178.398 154.412 178.398C154.09 178.398 153.808 178.464 153.565 178.597C153.323 178.725 153.133 178.913 152.997 179.159C152.864 179.405 152.798 179.705 152.798 180.057H150.133C150.133 179.265 150.311 178.581 150.668 178.006C151.024 177.43 151.524 176.987 152.168 176.676C152.815 176.362 153.567 176.205 154.423 176.205C155.306 176.205 156.073 176.352 156.724 176.648C157.376 176.943 157.88 177.356 158.236 177.886C158.596 178.413 158.775 179.025 158.775 179.722C158.775 180.165 158.686 180.604 158.508 181.04C158.33 181.475 158.01 181.956 157.548 182.483C157.09 183.009 156.438 183.64 155.594 184.375L154.202 185.659V185.733H158.918V188H150.304ZM161.17 188V179.273H163.812V180.875H163.908C164.09 180.345 164.397 179.926 164.829 179.619C165.261 179.312 165.776 179.159 166.374 179.159C166.98 179.159 167.499 179.314 167.931 179.625C168.363 179.936 168.638 180.352 168.755 180.875H168.846C169.009 180.356 169.327 179.941 169.8 179.631C170.274 179.316 170.833 179.159 171.477 179.159C172.302 179.159 172.973 179.424 173.488 179.955C174.003 180.481 174.261 181.205 174.261 182.125V188H171.482V182.761C171.482 182.326 171.371 181.994 171.147 181.767C170.924 181.536 170.634 181.42 170.278 181.42C169.895 181.42 169.594 181.545 169.374 181.795C169.158 182.042 169.05 182.373 169.05 182.79V188H166.38V182.733C166.38 182.328 166.27 182.008 166.05 181.773C165.831 181.538 165.541 181.42 165.181 181.42C164.939 181.42 164.725 181.479 164.539 181.597C164.353 181.71 164.208 181.873 164.102 182.085C163.999 182.297 163.948 182.547 163.948 182.835V188H161.17ZM176.622 188V179.273H179.264V180.875H179.361C179.543 180.345 179.85 179.926 180.281 179.619C180.713 179.312 181.228 179.159 181.827 179.159C182.433 179.159 182.952 179.314 183.384 179.625C183.815 179.936 184.09 180.352 184.207 180.875H184.298C184.461 180.356 184.779 179.941 185.253 179.631C185.726 179.316 186.285 179.159 186.929 179.159C187.755 179.159 188.425 179.424 188.94 179.955C189.456 180.481 189.713 181.205 189.713 182.125V188H186.935V182.761C186.935 182.326 186.823 181.994 186.6 181.767C186.376 181.536 186.086 181.42 185.73 181.42C185.348 181.42 185.046 181.545 184.827 181.795C184.611 182.042 184.503 182.373 184.503 182.79V188H181.832V182.733C181.832 182.328 181.723 182.008 181.503 181.773C181.283 181.538 180.993 181.42 180.634 181.42C180.391 181.42 180.177 181.479 179.992 181.597C179.806 181.71 179.66 181.873 179.554 182.085C179.452 182.297 179.401 182.547 179.401 182.835V188H176.622Z" fill="#595959"/>
<path fill-rule="evenodd" clip-rule="evenodd" d="M169.597 16.0062C168.522 15.9671 158.296 15.8429 157.46 25.2439C157.008 30.2482 157.46 31.2689 157.46 31.2689C157.46 31.2689 154.311 30.8294 154.446 34.194C154.58 37.5632 157.82 39.1132 157.82 39.1132C157.82 39.1132 158.602 44.9445 162.091 46.5322C165.105 47.9026 160.21 55.9454 148.802 56.744C142.884 57.1551 134.965 62.1263 133.751 74.1527C133.588 75.7658 133.453 77.153 133.336 78.3622C132.576 86.1685 132.538 86.5587 130.377 92.4262C129.175 95.6906 129.183 98.0558 129.193 100.78C129.204 103.71 129.216 107.055 127.723 112.382C125.837 119.113 125.987 129.834 126.12 139.319C126.19 144.318 126.255 148.973 126.015 152.52C125.655 157.855 132.043 162.179 133.031 161.47C133.488 161.143 132.756 160.213 131.809 159.009C130.704 157.606 129.308 155.83 129.163 154.207C128.894 151.192 129.792 147.653 131.774 146.675C132.85 146.144 133.792 147.443 134.63 148.6C135.336 149.573 135.967 150.445 136.544 150.039C137.006 149.714 136.551 148.819 135.881 147.502C134.721 145.223 132.917 141.679 134.116 137.635C134.477 136.416 134.996 134.829 135.591 133.009C138.11 125.303 141.993 113.424 141.046 107.69C139.875 100.601 148.154 84.9646 148.514 84.5677C150.457 82.4412 150.856 112.207 147.832 121.776C145.855 128.037 143.388 147.861 144.286 157.855C144.4 159.133 144.58 160.526 144.805 162H167.639C168.106 154.622 168.719 148.666 169.602 148.457C170.485 148.666 171.098 154.622 171.565 162H194.399C194.624 160.526 194.803 159.133 194.918 157.855C195.82 147.861 193.349 128.042 191.371 121.776C188.348 112.207 188.746 82.4412 190.69 84.5677C191.05 84.9599 199.324 100.601 198.158 107.69C197.214 113.425 201.097 125.309 203.615 133.016C204.209 134.833 204.727 136.418 205.088 137.635C206.286 141.679 204.483 145.223 203.323 147.502C202.653 148.819 202.197 149.714 202.659 150.039C203.236 150.445 203.868 149.573 204.574 148.6C205.412 147.443 206.354 146.144 207.43 146.675C209.412 147.653 210.309 151.197 210.041 154.207C209.896 155.827 208.501 157.601 207.397 159.005C206.449 160.211 205.716 161.143 206.172 161.47C207.161 162.179 213.549 157.855 213.189 152.52C212.951 148.978 213.016 144.333 213.086 139.345C213.218 129.853 213.368 119.119 211.48 112.382C209.988 107.055 210 103.71 210.01 100.78C210.02 98.0558 210.029 95.6906 208.826 92.4262C206.666 86.5587 206.628 86.1685 205.868 78.3622C205.75 77.153 205.615 75.7658 205.453 74.1527C204.238 62.1263 196.319 57.1599 190.402 56.744C178.999 55.9501 174.099 47.9073 177.113 46.5322C180.602 44.9445 181.384 39.1132 181.384 39.1132C181.384 39.1132 184.624 37.5632 184.758 34.194C184.892 30.8247 181.744 31.2689 181.744 31.2689C181.744 31.2689 182.195 30.2482 181.744 25.2439C180.898 15.8429 170.672 15.9671 169.597 16.0062Z" fill="#00DEA2" fill-opacity="0.3"/>
<path d="M157.46 25.2439L158.456 25.3337L158.456 25.3325L157.46 25.2439ZM169.597 16.0062L169.561 17.0055L169.597 17.0069L169.633 17.0055L169.597 16.0062ZM157.46 31.2689L157.321 32.2593L159.1 32.5076L158.374 30.8646L157.46 31.2689ZM154.446 34.194L155.445 34.1541L155.445 34.1541L154.446 34.194ZM157.82 39.1132L158.811 38.9802L158.739 38.4445L158.251 38.2111L157.82 39.1132ZM162.091 46.5322L161.677 47.4424L161.677 47.4425L162.091 46.5322ZM148.802 56.744L148.871 57.7416L148.872 57.7416L148.802 56.744ZM133.751 74.1527L132.756 74.0523L132.756 74.0523L133.751 74.1527ZM133.336 78.3622L132.34 78.2654L133.336 78.3622ZM130.377 92.4262L129.439 92.0806L129.439 92.0806L130.377 92.4262ZM129.193 100.78L130.193 100.776L130.193 100.776L129.193 100.78ZM127.723 112.382L126.76 112.112L126.76 112.112L127.723 112.382ZM126.12 139.319L125.12 139.333L126.12 139.319ZM126.015 152.52L125.017 152.453L125.017 152.453L126.015 152.52ZM133.031 161.47L133.614 162.283L133.614 162.283L133.031 161.47ZM131.809 159.009L132.595 158.391L132.595 158.391L131.809 159.009ZM129.163 154.207L130.159 154.118L130.159 154.118L129.163 154.207ZM131.774 146.675L132.216 147.572L132.216 147.572L131.774 146.675ZM134.63 148.6L135.44 148.013L135.44 148.013L134.63 148.6ZM136.544 150.039L137.12 150.857L137.12 150.857L136.544 150.039ZM135.881 147.502L134.99 147.956L134.99 147.956L135.881 147.502ZM134.116 137.635L135.075 137.919L134.116 137.635ZM135.591 133.009L136.541 133.32L136.541 133.32L135.591 133.009ZM141.046 107.69L142.033 107.527L142.033 107.527L141.046 107.69ZM148.514 84.5677L147.776 83.893L147.773 83.896L148.514 84.5677ZM147.832 121.776L146.879 121.475L146.879 121.475L147.832 121.776ZM144.286 157.855L143.29 157.945L143.29 157.945L144.286 157.855ZM144.805 162L143.816 162.151L143.946 163H144.805V162ZM167.639 162V163H168.577L168.637 162.063L167.639 162ZM169.602 148.457L169.832 147.484L169.602 147.43L169.372 147.484L169.602 148.457ZM171.565 162L170.567 162.063L170.626 163H171.565V162ZM194.399 162V163H195.258L195.387 162.151L194.399 162ZM194.918 157.855L193.922 157.765L193.922 157.766L194.918 157.855ZM191.371 121.776L192.325 121.475L192.325 121.475L191.371 121.776ZM190.69 84.5677L189.952 85.2424L189.953 85.2438L190.69 84.5677ZM198.158 107.69L199.144 107.852L199.144 107.852L198.158 107.69ZM203.615 133.016L204.566 132.705L204.566 132.705L203.615 133.016ZM205.088 137.635L206.047 137.351L206.047 137.351L205.088 137.635ZM203.323 147.502L202.431 147.049L202.431 147.049L203.323 147.502ZM202.659 150.039L203.235 149.222L203.235 149.222L202.659 150.039ZM204.574 148.6L205.383 149.187L205.383 149.187L204.574 148.6ZM207.43 146.675L206.987 147.572L206.987 147.572L207.43 146.675ZM210.041 154.207L211.037 154.296L211.037 154.296L210.041 154.207ZM207.397 159.005L208.183 159.624L208.183 159.624L207.397 159.005ZM206.172 161.47L205.59 162.283L205.59 162.283L206.172 161.47ZM213.189 152.52L212.191 152.587L212.191 152.588L213.189 152.52ZM213.086 139.345L212.086 139.331L212.086 139.331L213.086 139.345ZM211.48 112.382L212.443 112.112L212.443 112.112L211.48 112.382ZM210.01 100.78L209.011 100.776L209.011 100.776L210.01 100.78ZM208.826 92.4262L207.888 92.7718L207.888 92.7718L208.826 92.4262ZM205.868 78.3622L206.863 78.2653L206.863 78.2653L205.868 78.3622ZM205.453 74.1527L206.447 74.0523L206.447 74.0523L205.453 74.1527ZM190.402 56.744L190.472 55.7465L190.471 55.7464L190.402 56.744ZM177.113 46.5322L176.699 45.622L176.698 45.6224L177.113 46.5322ZM181.384 39.1132L180.952 38.2111L180.465 38.4445L180.393 38.9802L181.384 39.1132ZM184.758 34.194L185.757 34.2338L184.758 34.194ZM181.744 31.2689L180.829 30.8646L180.102 32.5105L181.884 32.2591L181.744 31.2689ZM181.744 25.2439L180.748 25.3335L180.748 25.3337L181.744 25.2439ZM158.456 25.3325C158.833 21.0925 161.278 19.0455 163.816 18.011C166.415 16.952 169.071 16.9877 169.561 17.0055L169.633 15.0069C169.048 14.9855 166.054 14.9396 163.062 16.1589C160.009 17.4029 156.923 19.9942 156.464 25.1553L158.456 25.3325ZM157.46 31.2689C158.374 30.8646 158.375 30.8656 158.375 30.8666C158.375 30.8669 158.376 30.8678 158.376 30.8685C158.376 30.8697 158.377 30.871 158.378 30.8722C158.379 30.8746 158.38 30.877 158.381 30.8793C158.383 30.8839 158.384 30.8881 158.386 30.892C158.389 30.8999 158.391 30.9064 158.393 30.9115C158.397 30.9216 158.398 30.9263 158.398 30.9244C158.397 30.9206 158.388 30.8922 158.376 30.8326C158.352 30.7123 158.314 30.4746 158.288 30.0691C158.236 29.256 158.233 27.8042 158.456 25.3337L156.464 25.1541C156.235 27.6879 156.232 29.2486 156.292 30.1969C156.323 30.6721 156.37 31.0024 156.416 31.2299C156.439 31.3441 156.463 31.4346 156.484 31.5061C156.495 31.5419 156.506 31.5734 156.516 31.6009C156.521 31.6147 156.526 31.6276 156.531 31.6396C156.533 31.6456 156.536 31.6514 156.538 31.657C156.539 31.6598 156.54 31.6625 156.541 31.6652C156.542 31.6666 156.543 31.6679 156.543 31.6692C156.544 31.6699 156.544 31.6709 156.544 31.6712C156.545 31.6722 156.545 31.6731 157.46 31.2689ZM155.445 34.1541C155.418 33.4695 155.56 33.0796 155.702 32.8563C155.844 32.6342 156.042 32.4918 156.276 32.3971C156.521 32.2986 156.787 32.2606 157.009 32.252C157.116 32.2479 157.204 32.2509 157.261 32.2546C157.29 32.2564 157.31 32.2583 157.321 32.2594C157.326 32.26 157.329 32.2603 157.329 32.2603C157.329 32.2603 157.329 32.2603 157.327 32.2601C157.327 32.26 157.326 32.2599 157.325 32.2598C157.324 32.2597 157.324 32.2596 157.323 32.2595C157.323 32.2595 157.322 32.2594 157.322 32.2594C157.322 32.2594 157.321 32.2593 157.46 31.2689C157.598 30.2785 157.597 30.2784 157.597 30.2783C157.597 30.2783 157.596 30.2782 157.596 30.2782C157.595 30.2781 157.594 30.278 157.593 30.2779C157.591 30.2776 157.59 30.2774 157.587 30.2771C157.583 30.2765 157.578 30.2759 157.572 30.2751C157.56 30.2737 157.546 30.272 157.528 30.2702C157.492 30.2665 157.445 30.2622 157.388 30.2586C157.274 30.2513 157.117 30.2463 156.931 30.2535C156.567 30.2677 156.054 30.3301 155.528 30.5423C154.992 30.7584 154.428 31.137 154.017 31.7787C153.608 32.4193 153.407 33.2362 153.446 34.2339L155.445 34.1541ZM157.82 39.1132C158.251 38.2111 158.252 38.2113 158.252 38.2115C158.252 38.2115 158.252 38.2117 158.252 38.2118C158.253 38.212 158.253 38.2121 158.253 38.2123C158.254 38.2126 158.254 38.2127 158.255 38.2129C158.255 38.2131 158.255 38.2129 158.254 38.2124C158.252 38.2114 158.247 38.2089 158.239 38.205C158.224 38.1972 158.198 38.1836 158.163 38.1642C158.092 38.1254 157.986 38.0637 157.855 37.9789C157.591 37.8083 157.238 37.5497 156.882 37.2022C156.169 36.5048 155.499 35.5016 155.445 34.1541L153.446 34.2338C153.527 36.2557 154.543 37.7121 155.484 38.6319C155.955 39.0931 156.42 39.4325 156.768 39.6578C156.943 39.771 157.09 39.8567 157.197 39.9158C157.251 39.9454 157.295 39.9684 157.327 39.9849C157.343 39.9932 157.357 39.9999 157.367 40.0049C157.372 40.0074 157.376 40.0096 157.38 40.0113C157.381 40.0121 157.383 40.0129 157.384 40.0136C157.385 40.0139 157.386 40.0142 157.386 40.0145C157.387 40.0146 157.387 40.0148 157.387 40.0149C157.388 40.0151 157.388 40.0153 157.82 39.1132ZM162.505 45.622C161.136 44.9989 160.191 43.4694 159.581 41.8709C159.287 41.0994 159.093 40.3693 158.972 39.8308C158.912 39.5626 158.871 39.3445 158.845 39.1959C158.832 39.1216 158.823 39.0649 158.818 39.0281C158.815 39.0097 158.813 38.9963 158.812 38.9882C158.811 38.9842 158.811 38.9815 158.811 38.9801C158.811 38.9795 158.811 38.9791 158.811 38.9792C158.811 38.9792 158.811 38.9793 158.811 38.9794C158.811 38.9795 158.811 38.9797 158.811 38.9798C158.811 38.98 158.811 38.9802 157.82 39.1132C156.828 39.2462 156.828 39.2465 156.829 39.2468C156.829 39.2469 156.829 39.2472 156.829 39.2475C156.829 39.248 156.829 39.2487 156.829 39.2494C156.829 39.2508 156.829 39.2526 156.83 39.2547C156.83 39.259 156.831 39.2647 156.832 39.2717C156.834 39.2858 156.837 39.3053 156.841 39.33C156.848 39.3794 156.859 39.4495 156.875 39.5378C156.905 39.7143 156.953 39.9642 157.02 40.2675C157.156 40.872 157.375 41.6989 157.712 42.5837C158.366 44.2978 159.557 46.4778 161.677 47.4424L162.505 45.622ZM148.872 57.7416C154.797 57.3268 159.106 55.0251 161.563 52.5583C162.779 51.3377 163.598 50.0179 163.866 48.8108C164.002 48.2019 164.009 47.5647 163.789 46.9804C163.561 46.3724 163.116 45.8997 162.505 45.6219L161.677 47.4425C161.82 47.5073 161.88 47.5858 161.917 47.683C161.962 47.8039 161.992 48.0262 161.914 48.3765C161.756 49.0878 161.203 50.0856 160.146 51.1468C158.057 53.2437 154.215 55.3626 148.732 55.7464L148.872 57.7416ZM134.746 74.2532C135.912 62.7068 143.444 58.1186 148.871 57.7416L148.732 55.7464C142.324 56.1916 134.019 61.5459 132.756 74.0523L134.746 74.2532ZM134.331 78.4591C134.449 77.2498 134.583 75.8642 134.746 74.2532L132.756 74.0523C132.593 75.6674 132.458 77.0562 132.34 78.2654L134.331 78.4591ZM131.316 92.7718C132.393 89.8463 132.969 88.2147 133.361 86.3243C133.749 84.4522 133.953 82.3391 134.331 78.4591L132.34 78.2654C131.958 82.1917 131.764 84.1768 131.403 85.9183C131.046 87.6414 130.522 89.1386 129.439 92.0806L131.316 92.7718ZM130.193 100.776C130.183 98.0668 130.18 95.8564 131.316 92.7718L129.439 92.0806C128.17 95.5248 128.183 98.0449 128.193 100.783L130.193 100.776ZM128.686 112.652C130.215 107.194 130.204 103.741 130.193 100.776L128.193 100.783C128.203 103.679 128.216 106.917 126.76 112.112L128.686 112.652ZM127.12 139.306C127.053 134.558 126.983 129.533 127.164 124.856C127.345 120.168 127.776 115.901 128.686 112.652L126.76 112.112C125.785 115.594 125.348 120.053 125.165 124.779C124.982 129.518 125.054 134.596 125.12 139.333L127.12 139.306ZM127.012 152.588C127.256 148.991 127.189 144.289 127.12 139.306L125.12 139.333C125.19 144.347 125.254 148.956 125.017 152.453L127.012 152.588ZM132.449 160.658C132.698 160.479 132.873 160.583 132.652 160.533C132.5 160.498 132.258 160.409 131.936 160.238C131.301 159.901 130.499 159.322 129.721 158.551C128.141 156.987 126.86 154.84 127.012 152.588L125.017 152.453C124.809 155.536 126.542 158.218 128.314 159.972C129.211 160.861 130.169 161.564 130.998 162.004C131.409 162.223 131.825 162.396 132.21 162.483C132.526 162.555 133.118 162.639 133.614 162.283L132.449 160.658ZM131.023 159.628C131.515 160.254 131.88 160.721 132.08 161.068C132.184 161.248 132.18 161.293 132.174 161.243C132.169 161.204 132.163 161.103 132.21 160.974C132.262 160.834 132.354 160.726 132.449 160.658L133.614 162.283C134.096 161.938 134.211 161.414 134.158 160.991C134.113 160.637 133.953 160.312 133.813 160.069C133.524 159.568 133.049 158.968 132.595 158.391L131.023 159.628ZM128.167 154.296C128.26 155.338 128.74 156.346 129.274 157.214C129.815 158.094 130.477 158.934 131.023 159.628L132.595 158.391C132.036 157.681 131.448 156.931 130.978 156.167C130.501 155.391 130.211 154.7 130.159 154.118L128.167 154.296ZM131.331 145.778C129.979 146.445 129.142 147.89 128.671 149.375C128.189 150.897 128.022 152.669 128.167 154.296L130.159 154.118C130.035 152.73 130.183 151.226 130.578 149.979C130.984 148.696 131.586 147.882 132.216 147.572L131.331 145.778ZM135.44 148.013C135.042 147.464 134.524 146.739 133.938 146.242C133.333 145.728 132.394 145.254 131.331 145.778L132.216 147.572C132.23 147.565 132.3 147.475 132.644 147.767C133.008 148.076 133.38 148.579 133.82 149.187L135.44 148.013ZM135.969 149.222C136.068 149.151 136.225 149.121 136.356 149.156C136.43 149.175 136.416 149.195 136.308 149.097C136.084 148.893 135.816 148.532 135.44 148.013L133.82 149.187C134.15 149.641 134.551 150.203 134.963 150.577C135.173 150.767 135.47 150.99 135.846 151.09C136.28 151.204 136.732 151.13 137.12 150.857L135.969 149.222ZM134.99 147.956C135.34 148.645 135.577 149.116 135.686 149.453C135.741 149.621 135.729 149.657 135.733 149.612C135.74 149.52 135.8 149.341 135.969 149.222L137.12 150.857C137.52 150.575 137.696 150.162 137.727 149.769C137.754 149.425 137.673 149.094 137.588 148.833C137.418 148.312 137.092 147.677 136.772 147.049L134.99 147.956ZM133.157 137.351C131.832 141.822 133.846 145.709 134.99 147.956L136.772 147.049C135.596 144.737 134.003 141.535 135.075 137.919L133.157 137.351ZM134.64 132.699C134.047 134.513 133.523 136.116 133.157 137.351L135.075 137.919C135.431 136.717 135.945 135.145 136.541 133.32L134.64 132.699ZM140.059 107.853C140.495 110.489 139.819 114.704 138.648 119.366C137.491 123.976 135.902 128.84 134.64 132.699L136.541 133.32C137.799 129.472 139.411 124.543 140.588 119.853C141.752 115.216 142.544 110.624 142.033 107.527L140.059 107.853ZM147.773 83.896C147.694 83.9829 147.631 84.0841 147.612 84.1147C147.576 84.1709 147.536 84.2384 147.493 84.313C147.406 84.4632 147.293 84.6648 147.161 84.9098C146.896 85.4009 146.543 86.0824 146.134 86.9074C145.317 88.5571 144.275 90.7932 143.279 93.243C142.285 95.6896 141.331 98.3686 140.698 100.9C140.072 103.406 139.733 105.874 140.059 107.853L142.033 107.527C141.774 105.961 142.03 103.817 142.638 101.385C143.24 98.9779 144.158 96.394 145.132 93.9958C146.105 91.6008 147.127 89.4103 147.926 87.7949C148.326 86.9874 148.669 86.3268 148.922 85.8591C149.048 85.6247 149.15 85.4427 149.223 85.3168C149.259 85.2533 149.286 85.2096 149.303 85.183C149.336 85.1307 149.311 85.1773 149.255 85.2394L147.773 83.896ZM148.786 122.077C149.577 119.575 150.125 115.828 150.484 111.713C150.844 107.578 151.018 102.998 151.036 98.7903C151.053 94.5871 150.916 90.7286 150.647 88.0395C150.515 86.7114 150.345 85.6023 150.123 84.873C150.066 84.6854 150 84.5008 149.919 84.3332C149.843 84.1763 149.727 83.9752 149.548 83.8051C149.357 83.6233 149.027 83.4217 148.592 83.4651C148.19 83.5052 147.92 83.7349 147.776 83.893L149.252 85.2424C149.229 85.2676 149.077 85.4267 148.791 85.4552C148.471 85.4872 148.253 85.3331 148.171 85.2549C148.101 85.1883 148.091 85.1467 148.117 85.202C148.139 85.2467 148.171 85.327 148.21 85.454C148.37 85.9829 148.526 86.9251 148.657 88.238C148.916 90.831 149.053 94.6133 149.036 98.7819C149.018 102.946 148.846 107.469 148.491 111.54C148.135 115.63 147.6 119.193 146.879 121.475L148.786 122.077ZM145.282 157.766C144.842 152.869 145.225 145.494 145.975 138.523C146.726 131.542 147.829 125.106 148.786 122.077L146.879 121.475C145.858 124.707 144.739 131.314 143.987 138.309C143.233 145.313 142.832 152.847 143.29 157.945L145.282 157.766ZM145.793 161.849C145.57 160.389 145.394 159.017 145.282 157.766L143.29 157.945C143.407 159.25 143.589 160.664 143.816 162.151L145.793 161.849ZM144.805 163H167.639V161H144.805V163ZM169.372 147.484C169.062 147.557 168.844 147.735 168.708 147.88C168.572 148.027 168.471 148.191 168.395 148.336C168.244 148.627 168.124 148.986 168.022 149.364C167.816 150.132 167.635 151.178 167.473 152.409C167.146 154.882 166.875 158.244 166.641 161.937L168.637 162.063C168.87 158.378 169.138 155.073 169.456 152.671C169.615 151.465 169.782 150.522 169.954 149.883C170.041 149.559 170.117 149.36 170.171 149.256C170.198 149.205 170.201 149.212 170.17 149.245C170.141 149.276 170.032 149.383 169.832 149.431L169.372 147.484ZM172.563 161.937C172.329 158.244 172.057 154.882 171.731 152.409C171.568 151.178 171.387 150.132 171.181 149.364C171.079 148.986 170.959 148.627 170.808 148.336C170.733 148.191 170.632 148.027 170.495 147.88C170.36 147.735 170.142 147.557 169.832 147.484L169.372 149.431C169.172 149.383 169.062 149.276 169.033 149.245C169.003 149.212 169.006 149.205 169.033 149.256C169.086 149.36 169.163 149.559 169.25 149.883C169.421 150.522 169.589 151.465 169.748 152.671C170.065 155.073 170.334 158.378 170.567 162.063L172.563 161.937ZM171.565 163H194.399V161H171.565V163ZM193.922 157.766C193.81 159.017 193.633 160.389 193.41 161.849L195.387 162.151C195.614 160.664 195.797 159.25 195.914 157.945L193.922 157.766ZM190.418 122.077C191.374 125.109 192.479 131.545 193.23 138.525C193.981 145.496 194.364 152.869 193.922 157.765L195.914 157.945C196.374 152.847 195.973 145.314 195.219 138.311C194.466 131.316 193.346 124.71 192.325 121.475L190.418 122.077ZM191.428 83.893C191.283 83.7349 191.013 83.5052 190.612 83.4651C190.176 83.4217 189.846 83.6233 189.655 83.8051C189.476 83.9752 189.36 84.1763 189.285 84.3332C189.204 84.5008 189.137 84.6854 189.08 84.873C188.859 85.6023 188.689 86.7114 188.556 88.0395C188.288 90.7286 188.15 94.5871 188.168 98.7903C188.186 102.998 188.359 107.578 188.72 111.713C189.078 115.828 189.627 119.575 190.418 122.077L192.325 121.475C191.604 119.193 191.069 115.63 190.712 111.54C190.358 107.469 190.186 102.946 190.168 98.7819C190.15 94.6133 190.288 90.831 190.546 88.238C190.677 86.9251 190.833 85.9829 190.994 85.454C191.033 85.327 191.065 85.2467 191.086 85.202C191.113 85.1467 191.103 85.1883 191.033 85.2549C190.951 85.3331 190.733 85.4872 190.413 85.4552C190.126 85.4267 189.975 85.2676 189.952 85.2424L191.428 83.893ZM199.144 107.852C199.47 105.874 199.13 103.405 198.504 100.899C197.871 98.3676 196.916 95.6882 195.923 93.2413C194.928 90.7913 193.885 88.555 193.069 86.9055C192.66 86.0806 192.307 85.3992 192.042 84.9084C191.91 84.6635 191.798 84.462 191.711 84.3117C191.667 84.2372 191.627 84.1696 191.591 84.1132C191.572 84.0833 191.508 83.98 191.427 83.8915L189.953 85.2438C189.894 85.1799 189.868 85.1309 189.902 85.1836C189.918 85.2098 189.944 85.2532 189.981 85.3165C190.054 85.442 190.155 85.6236 190.282 85.8578C190.534 86.3251 190.877 86.9854 191.276 87.7928C192.076 89.4079 193.097 91.5985 194.07 93.9939C195.044 96.3924 195.961 98.9769 196.563 101.384C197.171 103.817 197.428 105.961 197.171 107.527L199.144 107.852ZM204.566 132.705C203.305 128.846 201.716 123.982 200.558 119.37C199.387 114.706 198.71 110.49 199.144 107.852L197.171 107.527C196.661 110.625 197.454 115.218 198.618 119.857C199.796 124.548 201.407 129.478 202.665 133.326L204.566 132.705ZM206.047 137.351C205.681 136.117 205.158 134.517 204.566 132.705L202.665 133.326C203.26 135.149 203.773 136.718 204.129 137.919L206.047 137.351ZM204.214 147.956C205.358 145.709 207.372 141.822 206.047 137.351L204.129 137.919C205.201 141.535 203.608 144.737 202.431 147.049L204.214 147.956ZM203.235 149.222C203.404 149.341 203.463 149.52 203.471 149.612C203.474 149.657 203.462 149.621 203.517 149.453C203.627 149.116 203.863 148.645 204.214 147.956L202.431 147.049C202.112 147.677 201.785 148.312 201.616 148.833C201.531 149.094 201.45 149.425 201.477 149.769C201.508 150.162 201.684 150.575 202.084 150.857L203.235 149.222ZM203.764 148.013C203.388 148.532 203.12 148.893 202.896 149.097C202.787 149.195 202.774 149.175 202.848 149.156C202.979 149.121 203.135 149.151 203.235 149.222L202.084 150.857C202.472 151.13 202.924 151.204 203.357 151.09C203.734 150.99 204.031 150.767 204.24 150.577C204.653 150.203 205.054 149.641 205.383 149.187L203.764 148.013ZM207.872 145.778C206.81 145.254 205.871 145.728 205.265 146.242C204.68 146.739 204.161 147.464 203.764 148.013L205.383 149.187C205.824 148.579 206.196 148.076 206.56 147.767C206.903 147.475 206.974 147.565 206.987 147.572L207.872 145.778ZM211.037 154.296C211.182 152.672 211.015 150.899 210.533 149.377C210.062 147.892 209.225 146.446 207.872 145.778L206.987 147.572C207.617 147.882 208.219 148.697 208.626 149.981C209.021 151.228 209.168 152.733 209.045 154.118L211.037 154.296ZM208.183 159.624C208.729 158.929 209.39 158.09 209.93 157.211C210.464 156.343 210.944 155.336 211.037 154.296L209.045 154.118C208.993 154.698 208.703 155.388 208.226 156.164C207.757 156.928 207.169 157.677 206.611 158.387L208.183 159.624ZM206.755 160.658C206.85 160.726 206.942 160.834 206.993 160.974C207.041 161.103 207.035 161.204 207.03 161.242C207.024 161.292 207.02 161.247 207.124 161.066C207.324 160.719 207.69 160.251 208.183 159.624L206.611 158.387C206.156 158.966 205.681 159.566 205.391 160.068C205.251 160.311 205.091 160.636 205.046 160.991C204.992 161.413 205.107 161.937 205.59 162.283L206.755 160.658ZM212.191 152.588C212.343 154.84 211.063 156.987 209.483 158.551C208.705 159.322 207.902 159.901 207.267 160.238C206.946 160.409 206.703 160.498 206.552 160.533C206.331 160.583 206.506 160.479 206.755 160.658L205.59 162.283C206.086 162.639 206.677 162.555 206.993 162.483C207.379 162.396 207.795 162.223 208.206 162.004C209.035 161.564 209.992 160.861 210.89 159.972C212.661 158.218 214.395 155.536 214.187 152.453L212.191 152.588ZM212.086 139.331C212.016 144.304 211.95 148.996 212.191 152.587L214.187 152.453C213.952 148.961 214.016 144.363 214.085 139.359L212.086 139.331ZM210.518 112.652C211.429 115.904 211.86 120.176 212.041 124.869C212.222 129.551 212.152 134.58 212.086 139.331L214.085 139.359C214.152 134.619 214.223 129.535 214.04 124.792C213.857 120.061 213.42 115.597 212.443 112.112L210.518 112.652ZM209.011 100.776C209 103.741 208.988 107.194 210.518 112.652L212.443 112.112C210.988 106.917 211 103.679 211.01 100.783L209.011 100.776ZM207.888 92.7718C209.024 95.8564 209.02 98.0668 209.011 100.776L211.01 100.783C211.02 98.0449 211.033 95.5248 209.765 92.0806L207.888 92.7718ZM204.873 78.459C205.25 82.3391 205.454 84.4522 205.843 86.3243C206.234 88.2147 206.811 89.8463 207.888 92.7718L209.765 92.0806C208.681 89.1386 208.158 87.6414 207.801 85.9183C207.44 84.1768 207.245 82.1916 206.863 78.2653L204.873 78.459ZM204.458 74.2532C204.62 75.8642 204.755 77.2498 204.873 78.459L206.863 78.2653C206.746 77.0561 206.611 75.6673 206.447 74.0523L204.458 74.2532ZM190.332 57.7415C195.76 58.123 203.292 62.7073 204.458 74.2532L206.447 74.0523C205.185 61.5453 196.879 56.1967 190.472 55.7465L190.332 57.7415ZM176.698 45.6224C176.087 45.9011 175.642 46.3744 175.414 46.9826C175.195 47.5672 175.202 48.2045 175.338 48.8137C175.607 50.0213 176.426 51.3413 177.643 52.5619C180.1 55.0287 184.41 57.3292 190.332 57.7416L190.471 55.7464C184.991 55.3649 181.149 53.2471 179.059 51.1502C178.002 50.089 177.449 49.0909 177.29 48.379C177.212 48.0283 177.242 47.8054 177.287 47.6839C177.324 47.586 177.385 47.5071 177.528 47.442L176.698 45.6224ZM181.384 39.1132C180.393 38.9802 180.393 38.98 180.393 38.9798C180.393 38.9797 180.393 38.9795 180.393 38.9794C180.393 38.9793 180.393 38.9792 180.393 38.9792C180.393 38.9791 180.393 38.9795 180.393 38.9801C180.393 38.9815 180.392 38.9842 180.392 38.9882C180.391 38.9963 180.389 39.0097 180.386 39.0281C180.38 39.0649 180.371 39.1216 180.358 39.1959C180.333 39.3445 180.291 39.5626 180.231 39.8308C180.111 40.3693 179.917 41.0994 179.622 41.8709C179.013 43.4694 178.068 44.9989 176.699 45.622L177.527 47.4424C179.647 46.4778 180.837 44.2978 181.491 42.5837C181.829 41.6989 182.048 40.872 182.183 40.2675C182.251 39.9642 182.298 39.7143 182.329 39.5378C182.344 39.4495 182.355 39.3794 182.363 39.33C182.367 39.3053 182.37 39.2858 182.372 39.2717C182.373 39.2647 182.373 39.259 182.374 39.2547C182.374 39.2526 182.375 39.2508 182.375 39.2494C182.375 39.2487 182.375 39.248 182.375 39.2475C182.375 39.2472 182.375 39.2469 182.375 39.2468C182.375 39.2465 182.375 39.2462 181.384 39.1132ZM183.759 34.1541C183.705 35.5016 183.034 36.5048 182.321 37.2022C181.966 37.5497 181.612 37.8083 181.349 37.9789C181.218 38.0637 181.111 38.1254 181.041 38.1642C181.006 38.1836 180.98 38.1972 180.964 38.205C180.957 38.2089 180.952 38.2114 180.95 38.2124C180.949 38.2129 180.948 38.2131 180.949 38.2129C180.949 38.2127 180.95 38.2126 180.95 38.2123C180.95 38.2121 180.951 38.212 180.951 38.2118C180.951 38.2117 180.952 38.2115 180.952 38.2115C180.952 38.2113 180.952 38.2111 181.384 39.1132C181.816 40.0153 181.816 40.0151 181.816 40.0149C181.817 40.0148 181.817 40.0146 181.817 40.0145C181.818 40.0142 181.819 40.0139 181.819 40.0136C181.821 40.0129 181.822 40.0121 181.824 40.0113C181.827 40.0096 181.832 40.0074 181.837 40.0049C181.847 39.9999 181.86 39.9932 181.877 39.9849C181.909 39.9684 181.953 39.9454 182.006 39.9158C182.113 39.8567 182.261 39.771 182.436 39.6578C182.784 39.4325 183.248 39.0931 183.72 38.6319C184.66 37.7121 185.677 36.2557 185.757 34.2338L183.759 34.1541ZM181.744 31.2689C181.884 32.2591 181.883 32.2592 181.883 32.2592C181.883 32.2592 181.882 32.2593 181.882 32.2593C181.881 32.2594 181.881 32.2595 181.88 32.2596C181.879 32.2597 181.878 32.2598 181.878 32.2599C181.877 32.2601 181.876 32.2601 181.876 32.2601C181.876 32.2601 181.879 32.2598 181.884 32.2592C181.895 32.2581 181.915 32.2561 181.944 32.2543C182.001 32.2506 182.089 32.2474 182.196 32.2514C182.418 32.2597 182.684 32.2974 182.928 32.3956C183.162 32.4899 183.359 32.632 183.501 32.8541C183.644 33.0775 183.786 33.468 183.759 34.1541L185.757 34.2338C185.797 33.2353 185.596 32.4178 185.186 31.7769C184.776 31.1347 184.211 30.7561 183.675 30.5403C183.148 30.3284 182.636 30.2665 182.271 30.2528C182.086 30.2459 181.929 30.2511 181.814 30.2585C181.757 30.2622 181.71 30.2665 181.674 30.2703C181.657 30.2721 181.642 30.2739 181.63 30.2753C181.624 30.276 181.619 30.2767 181.615 30.2773C181.613 30.2775 181.611 30.2778 181.609 30.2781C181.608 30.2782 181.607 30.2783 181.606 30.2784C181.606 30.2784 181.606 30.2785 181.605 30.2786C181.605 30.2786 181.604 30.2787 181.744 31.2689ZM180.748 25.3337C180.971 27.8042 180.967 29.256 180.915 30.0691C180.889 30.4746 180.852 30.7123 180.827 30.8326C180.815 30.8922 180.807 30.9206 180.806 30.9244C180.805 30.9263 180.807 30.9216 180.81 30.9115C180.812 30.9064 180.815 30.8999 180.818 30.892C180.819 30.8881 180.821 30.8839 180.823 30.8793C180.824 30.877 180.825 30.8746 180.826 30.8722C180.827 30.871 180.827 30.8697 180.828 30.8685C180.828 30.8678 180.828 30.8669 180.829 30.8666C180.829 30.8656 180.829 30.8646 181.744 31.2689C182.659 31.6731 182.659 31.6722 182.66 31.6712C182.66 31.6709 182.66 31.6699 182.66 31.6692C182.661 31.6679 182.662 31.6666 182.662 31.6652C182.663 31.6625 182.664 31.6598 182.666 31.657C182.668 31.6514 182.67 31.6456 182.673 31.6396C182.678 31.6276 182.683 31.6147 182.688 31.6009C182.698 31.5734 182.708 31.5419 182.719 31.5061C182.741 31.4346 182.764 31.3441 182.788 31.2299C182.834 31.0024 182.881 30.6721 182.911 30.1969C182.972 29.2486 182.968 27.6879 182.74 25.1541L180.748 25.3337ZM169.633 17.0055C170.123 16.9877 172.779 16.9519 175.379 18.0111C177.919 19.0457 180.367 21.0932 180.748 25.3335L182.74 25.1543C182.276 19.9936 179.187 17.4026 176.134 16.1589C173.14 14.9397 170.146 14.9855 169.561 15.0069L169.633 17.0055Z" fill="#00DEA2"/>
<path d="M151.502 79.23H159.872V80.28H151.502V79.23ZM152.432 80.97H158.862V83.89H157.532V82.01H152.432V80.97ZM155.022 74.66H156.342V76.02H155.022V74.66ZM154.942 76.12H156.112V76.31C156.112 77.71 154.772 78.7 152.252 78.88L151.852 77.88C154.082 77.74 154.942 77.02 154.942 76.31V76.12ZM155.252 76.12H156.422V76.31C156.422 77.02 157.282 77.74 159.512 77.88L159.112 78.88C156.582 78.7 155.252 77.71 155.252 76.31V76.12ZM152.302 75.49H159.072V76.52H152.302V75.49ZM165.721 76.87H167.481V77.95H165.721V76.87ZM167.121 74.63H168.451V80.13H167.121V74.63ZM165.311 80.33C167.271 80.33 168.481 81 168.481 82.12C168.481 83.25 167.271 83.9 165.311 83.9C163.351 83.9 162.141 83.25 162.141 82.12C162.141 81 163.351 80.33 165.311 80.33ZM165.311 81.34C164.111 81.34 163.471 81.59 163.471 82.12C163.471 82.64 164.111 82.89 165.311 82.89C166.521 82.89 167.161 82.64 167.161 82.12C167.161 81.59 166.521 81.34 165.311 81.34ZM162.841 75.56H163.921V76.14C163.921 77.91 163.101 79.53 161.331 80.13L160.651 79.08C162.181 78.56 162.841 77.33 162.841 76.14V75.56ZM163.121 75.56H164.191V76.14C164.191 77.23 164.821 78.36 166.281 78.85L165.631 79.9C163.911 79.33 163.121 77.79 163.121 76.14V75.56ZM161.011 75.19H165.991V76.25H161.011V75.19ZM176.32 74.63H177.65V83.89H176.32V74.63ZM174.53 78.18H176.96V79.26H174.53V78.18ZM173.28 75.59H174.59C174.59 78.4 173.7 80.69 170.49 82.3L169.79 81.26C172.41 79.96 173.28 78.28 173.28 75.83V75.59ZM170.23 75.59H173.98V76.64H170.23V75.59ZM185.479 74.62H186.809V83.91H185.479V74.62ZM179.599 80.67H180.419C182.059 80.67 183.369 80.61 184.839 80.36L184.969 81.43C183.469 81.7 182.109 81.75 180.419 81.75H179.599V80.67ZM179.589 75.41H183.959V78.99H180.949V81.07H179.599V77.94H182.599V76.47H179.589V75.41Z" fill="#3D3D3D"/>
<path d="M135 107L135 88" stroke="#3D3D3D" stroke-linecap="round"/>
<path d="M150 111L150 88" stroke="#3D3D3D" stroke-linecap="round"/>
<path d="M135 89H150" stroke="#3D3D3D" stroke-linecap="round"/>
<circle cx="150" cy="111" r="2" fill="#FF4A4A"/>
<circle cx="135" cy="107" r="2" fill="#FF4A4A"/>
<path d="M205 107L205 88" stroke="#3D3D3D" stroke-linecap="round"/>
<path d="M190 111L190 88" stroke="#3D3D3D" stroke-linecap="round"/>
<path d="M205 89H190" stroke="#3D3D3D" stroke-linecap="round"/>
<circle cx="2" cy="2" r="2" transform="matrix(-1 0 0 1 192 109)" fill="#FF4A4A"/>
<circle cx="2" cy="2" r="2" transform="matrix(-1 0 0 1 207 105)" fill="#FF4A4A"/>
<defs>
<filter id="filter0_d_1383_1185" x="0" y="0" width="340" height="215" filterUnits="userSpaceOnUse" color-interpolation-filters="sRGB">
<feFlood flood-opacity="0" result="BackgroundImageFix"/>
<feColorMatrix in="SourceAlpha" type="matrix" values="0 0 0 0 0 0 0 0 0 0 0 0 0 0 0 0 0 0 127 0" result="hardAlpha"/>
<feOffset dy="4"/>
<feGaussianBlur stdDeviation="2.5"/>
<feComposite in2="hardAlpha" operator="out"/>
<feColorMatrix type="matrix" values="0 0 0 0 0 0 0 0 0 0 0 0 0 0 0 0 0 0 0.1 0"/>
<feBlend mode="normal" in2="BackgroundImageFix" result="effect1_dropShadow_1383_1185"/>
<feBlend mode="normal" in="SourceGraphic" in2="effect1_dropShadow_1383_1185" result="shape"/>
</filter>
</defs>
</svg>
