<svg width="340" height="215" viewBox="0 0 340 215" fill="none" xmlns="http://www.w3.org/2000/svg">
<g filter="url(#filter0_d_1384_1093)">
<rect x="5" y="1" width="330" height="205" rx="7" fill="white"/>
</g>
<path d="M167.74 188.159C166.834 188.159 166.026 188.015 165.314 187.727C164.605 187.436 164.048 187.042 163.643 186.545C163.242 186.045 163.041 185.481 163.041 184.852C163.041 184.371 163.156 183.93 163.387 183.528C163.618 183.127 163.931 182.794 164.325 182.528C164.723 182.259 165.166 182.087 165.654 182.011V181.92C165.014 181.803 164.49 181.506 164.081 181.028C163.675 180.551 163.473 179.992 163.473 179.352C163.473 178.746 163.656 178.206 164.024 177.733C164.395 177.259 164.901 176.886 165.541 176.614C166.185 176.341 166.918 176.205 167.74 176.205C168.562 176.205 169.293 176.341 169.933 176.614C170.577 176.886 171.082 177.259 171.45 177.733C171.821 178.206 172.007 178.746 172.007 179.352C172.007 179.996 171.8 180.557 171.387 181.034C170.978 181.508 170.457 181.803 169.825 181.92V182.011C170.31 182.087 170.749 182.259 171.143 182.528C171.541 182.794 171.855 183.127 172.086 183.528C172.321 183.93 172.439 184.371 172.439 184.852C172.439 185.481 172.236 186.045 171.831 186.545C171.425 187.042 170.868 187.436 170.16 187.727C169.456 188.015 168.649 188.159 167.74 188.159ZM167.74 186.165C168.084 186.165 168.387 186.1 168.649 185.972C168.91 185.839 169.115 185.655 169.262 185.42C169.414 185.186 169.49 184.92 169.49 184.625C169.49 184.322 169.414 184.053 169.262 183.818C169.111 183.583 168.903 183.4 168.637 183.267C168.376 183.131 168.077 183.062 167.74 183.062C167.406 183.062 167.107 183.131 166.842 183.267C166.577 183.4 166.368 183.583 166.217 183.818C166.065 184.053 165.99 184.322 165.99 184.625C165.99 184.92 166.064 185.186 166.211 185.42C166.363 185.652 166.569 185.833 166.831 185.966C167.096 186.098 167.399 186.165 167.74 186.165ZM167.74 181.08C168.035 181.08 168.296 181.019 168.524 180.898C168.755 180.777 168.935 180.608 169.064 180.392C169.196 180.176 169.262 179.932 169.262 179.659C169.262 179.386 169.196 179.146 169.064 178.938C168.935 178.729 168.757 178.566 168.529 178.449C168.302 178.328 168.039 178.267 167.74 178.267C167.444 178.267 167.181 178.328 166.95 178.449C166.719 178.566 166.539 178.729 166.41 178.938C166.281 179.146 166.217 179.386 166.217 179.659C166.217 179.932 166.281 180.176 166.41 180.392C166.543 180.604 166.725 180.773 166.956 180.898C167.187 181.019 167.448 181.08 167.74 181.08ZM176.982 176.364V177.659C176.982 178.019 176.91 178.383 176.766 178.75C176.626 179.114 176.442 179.455 176.215 179.773C175.988 180.091 175.747 180.36 175.493 180.58L174.311 179.932C174.486 179.644 174.641 179.32 174.777 178.96C174.914 178.597 174.982 178.165 174.982 177.665V176.364H176.982Z" fill="#595959"/>
<path d="M170.982 16C164.85 16 159.879 18.4102 159.879 21.3833H182.085C182.085 18.4102 177.114 16 170.982 16Z" fill="#00DEA2" fill-opacity="0.3"/>
<path fill-rule="evenodd" clip-rule="evenodd" d="M167.594 122.959C168.153 110.437 168.893 93.8916 170.4 93.7137C171.907 93.8916 172.646 110.437 173.206 122.959C173.506 129.675 173.754 135.233 174.042 136.489C174.868 140.099 176.012 146.236 175.782 151.742C175.702 153.666 175.45 155.986 175.179 158.488C175.021 159.945 174.856 161.463 174.714 163H192.494C192.821 159.347 192.924 155.587 192.599 152.82C192.341 150.634 192.088 149.224 191.847 147.884C191.451 145.685 191.09 143.677 190.804 138.741C190.54 134.172 192.067 126.495 193.586 118.861C194.707 113.226 195.823 107.614 196.211 103.291C197.048 99.6009 198.386 90.291 198.019 79.2497C199.812 74.4272 203.465 62.2249 203.734 51.9965C204.071 39.2111 203.398 29.4538 194.65 25.7527C185.98 22.0845 175.091 21.0604 170.592 21.0425C166.087 21.0604 154.82 22.0845 146.15 25.7527C137.402 29.4538 136.729 39.2111 137.065 51.9965C137.335 62.2249 140.987 74.4272 142.78 79.2497C142.414 90.291 143.752 99.6009 144.588 103.291C144.977 107.614 146.093 113.226 147.214 118.861C148.733 126.495 150.26 134.172 149.995 138.741C149.71 143.677 149.348 145.685 148.953 147.884C148.712 149.224 148.458 150.634 148.201 152.82C147.876 155.587 147.979 159.347 148.305 163H166.085C165.944 161.463 165.779 159.945 165.621 158.488C165.349 155.986 165.097 153.666 165.018 151.742C164.788 146.236 165.932 140.099 166.758 136.489C167.045 135.233 167.294 129.674 167.594 122.959Z" fill="#00DEA2" fill-opacity="0.3"/>
<path d="M170.4 93.7137L170.517 92.7206C170.439 92.7114 170.36 92.7114 170.283 92.7206L170.4 93.7137ZM167.594 122.959L168.593 123.004L168.593 123.004L167.594 122.959ZM173.206 122.959L172.207 123.004L172.207 123.004L173.206 122.959ZM174.042 136.489L173.067 136.712L173.067 136.712L174.042 136.489ZM175.782 151.742L174.783 151.7L174.783 151.701L175.782 151.742ZM175.179 158.488L176.173 158.596L176.173 158.596L175.179 158.488ZM174.714 163L173.719 162.908C173.693 163.188 173.786 163.466 173.976 163.674C174.165 163.882 174.433 164 174.714 164V163ZM192.494 163V164C193.012 164 193.444 163.605 193.49 163.089L192.494 163ZM192.599 152.82L193.592 152.704L193.592 152.704L192.599 152.82ZM191.847 147.884L192.831 147.707L192.831 147.707L191.847 147.884ZM190.804 138.741L191.803 138.683L191.803 138.683L190.804 138.741ZM193.586 118.861L194.567 119.056L194.567 119.056L193.586 118.861ZM196.211 103.291L195.236 103.07C195.226 103.113 195.219 103.157 195.215 103.201L196.211 103.291ZM198.019 79.2497L197.082 78.9013C197.037 79.0232 197.016 79.1529 197.02 79.2829L198.019 79.2497ZM203.734 51.9965L204.734 52.0228L204.734 52.0228L203.734 51.9965ZM194.65 25.7527L195.04 24.8318L195.04 24.8318L194.65 25.7527ZM170.592 21.0425L170.596 20.0425L170.588 20.0425L170.592 21.0425ZM146.15 25.7527L146.539 26.6737L146.539 26.6737L146.15 25.7527ZM137.065 51.9965L138.065 51.9702L137.065 51.9965ZM142.78 79.2497L143.78 79.2829C143.784 79.1529 143.763 79.0232 143.717 78.9013L142.78 79.2497ZM144.588 103.291L145.584 103.201C145.58 103.157 145.574 103.113 145.564 103.07L144.588 103.291ZM147.214 118.861L146.233 119.056L146.233 119.056L147.214 118.861ZM149.995 138.741L148.997 138.683L148.997 138.683L149.995 138.741ZM148.953 147.884L147.969 147.707L147.969 147.707L148.953 147.884ZM148.201 152.82L149.194 152.937L149.194 152.937L148.201 152.82ZM148.305 163L147.309 163.089C147.355 163.605 147.787 164 148.305 164V163ZM166.085 163V164C166.366 164 166.635 163.882 166.824 163.674C167.014 163.466 167.107 163.188 167.081 162.908L166.085 163ZM165.621 158.488L164.627 158.596L164.627 158.596L165.621 158.488ZM165.018 151.742L166.017 151.701L166.017 151.7L165.018 151.742ZM166.758 136.489L165.783 136.266L165.783 136.266L166.758 136.489ZM158.608 22.0563C158.608 22.6085 159.056 23.0563 159.608 23.0563C160.161 23.0563 160.608 22.6085 160.608 22.0563H158.608ZM179.137 17.7738L178.669 18.6576L178.669 18.6576L179.137 17.7738ZM181.488 22.0563C181.488 22.6086 181.935 23.0563 182.488 23.0563C183.04 23.0563 183.488 22.6086 183.488 22.0563H181.488ZM170.327 92.7122C169.774 92.7122 169.327 93.1599 169.327 93.7122C169.327 94.2645 169.774 94.7122 170.327 94.7122V92.7122ZM170.4 93.7137L170.283 94.7068C170.361 94.716 170.439 94.716 170.517 94.7068L170.4 93.7137ZM143.122 73.5299L144.118 73.6168L144.118 73.6168L143.122 73.5299ZM144.099 41.0174C143.982 40.4777 143.449 40.1353 142.909 40.2527C142.37 40.37 142.027 40.9026 142.145 41.4423L144.099 41.0174ZM141.781 79.2166C141.762 79.7686 142.195 80.2309 142.747 80.2492C143.299 80.2675 143.761 79.8349 143.78 79.2829L141.781 79.2166ZM170.592 21.0425L170.59 22.0425L170.594 22.0425L170.592 21.0425ZM170.714 22.0423C171.266 22.0412 171.713 21.5926 171.712 21.0403C171.711 20.488 171.262 20.0412 170.71 20.0423L170.714 22.0423ZM170.473 94.7122C171.025 94.7122 171.473 94.2645 171.473 93.7122C171.473 93.1599 171.025 92.7122 170.473 92.7122V94.7122ZM197.678 73.5299L196.682 73.6168L196.682 73.6168L197.678 73.5299ZM198.655 41.4423C198.772 40.9026 198.43 40.37 197.89 40.2527C197.351 40.1353 196.818 40.4777 196.701 41.0174L198.655 41.4423ZM197.02 79.2829C197.038 79.8349 197.501 80.2675 198.053 80.2492C198.605 80.2309 199.037 79.7686 199.019 79.2166L197.02 79.2829ZM170.475 20.0423C169.923 20.0412 169.474 20.488 169.473 21.0403C169.472 21.5926 169.919 22.0412 170.471 22.0423L170.475 20.0423ZM170.283 92.7206C169.735 92.7852 169.425 93.1808 169.291 93.3834C169.134 93.6226 169.015 93.9092 168.921 94.19C168.73 94.7615 168.565 95.5348 168.417 96.4359C168.12 98.2514 167.866 100.762 167.644 103.63C167.2 109.374 166.874 116.658 166.595 122.914L168.593 123.004C168.873 116.738 169.197 109.489 169.638 103.784C169.859 100.928 170.108 98.4871 170.391 96.7589C170.534 95.8882 170.678 95.2418 170.818 94.8256C170.889 94.6125 170.942 94.5132 170.961 94.4843C171.004 94.419 170.876 94.6645 170.517 94.7068L170.283 92.7206ZM174.205 122.914C173.925 116.658 173.6 109.374 173.155 103.63C172.933 100.762 172.68 98.2514 172.382 96.4359C172.235 95.5348 172.07 94.7615 171.878 94.19C171.784 93.9092 171.666 93.6226 171.508 93.3834C171.375 93.1808 171.064 92.7852 170.517 92.7206L170.283 94.7068C169.924 94.6645 169.796 94.4189 169.839 94.4843C169.858 94.5132 169.911 94.6125 169.982 94.8256C170.122 95.2418 170.266 95.8882 170.409 96.7589C170.691 98.4871 170.94 100.928 171.161 103.784C171.603 109.489 171.927 116.738 172.207 123.004L174.205 122.914ZM175.016 136.266C174.963 136.03 174.898 135.515 174.828 134.704C174.761 133.916 174.694 132.904 174.627 131.714C174.492 129.336 174.355 126.274 174.205 122.914L172.207 123.004C172.357 126.359 172.494 129.435 172.63 131.828C172.698 133.024 172.766 134.058 172.836 134.874C172.903 135.668 172.977 136.319 173.067 136.712L175.016 136.266ZM176.781 151.784C177.017 146.14 175.848 139.898 175.016 136.266L173.067 136.712C173.888 140.299 175.007 146.331 174.783 151.7L176.781 151.784ZM176.173 158.596C176.443 156.105 176.7 153.748 176.781 151.784L174.783 151.701C174.705 153.584 174.457 155.868 174.185 158.38L176.173 158.596ZM175.71 163.092C175.851 161.564 176.015 160.054 176.173 158.596L174.185 158.38C174.027 159.835 173.861 161.362 173.719 162.908L175.71 163.092ZM174.714 164H192.494V162H174.714V164ZM191.605 152.937C191.919 155.602 191.823 159.282 191.498 162.911L193.49 163.089C193.819 159.411 193.929 155.571 193.592 152.704L191.605 152.937ZM190.863 148.061C191.103 149.395 191.352 150.782 191.605 152.937L193.592 152.704C193.331 150.486 193.073 149.052 192.831 147.707L190.863 148.061ZM189.806 138.799C190.095 143.784 190.462 145.833 190.863 148.061L192.831 147.707C192.441 145.537 192.086 143.57 191.803 138.683L189.806 138.799ZM192.605 118.665C191.847 122.478 191.081 126.327 190.538 129.796C189.998 133.25 189.667 136.401 189.806 138.799L191.803 138.683C191.677 136.512 191.977 133.54 192.514 130.105C193.049 126.684 193.806 122.878 194.567 119.056L192.605 118.665ZM195.215 103.201C194.833 107.459 193.73 113.011 192.605 118.665L194.567 119.056C195.684 113.44 196.813 107.768 197.207 103.38L195.215 103.201ZM197.02 79.2829C197.383 90.2399 196.053 99.4643 195.236 103.07L197.186 103.512C198.042 99.7376 199.388 90.3422 199.019 79.2166L197.02 79.2829ZM202.735 51.9702C202.47 62.039 198.859 74.122 197.082 78.9013L198.957 79.5982C200.766 74.7323 204.461 62.4109 204.734 52.0228L202.735 51.9702ZM194.26 26.6737C198.286 28.3769 200.474 31.4502 201.634 35.7296C202.81 40.0708 202.903 45.5693 202.735 51.9702L204.734 52.0228C204.902 45.6384 204.827 39.8655 203.564 35.2064C202.284 30.4855 199.762 26.8296 195.04 24.8318L194.26 26.6737ZM170.588 22.0425C175.013 22.0601 185.757 23.076 194.26 26.6737L195.04 24.8318C186.203 21.093 175.168 20.0607 170.596 20.0425L170.588 22.0425ZM146.539 26.6737C155.04 23.0774 166.159 22.0601 170.596 22.0425L170.588 20.0425C166.015 20.0607 154.6 21.0916 145.76 24.8318L146.539 26.6737ZM138.065 51.9702C137.897 45.5693 137.989 40.0708 139.166 35.7296C140.326 31.4502 142.514 28.3769 146.539 26.6737L145.76 24.8318C141.038 26.8296 138.515 30.4855 137.236 35.2064C135.973 39.8655 135.898 45.6384 136.066 52.0228L138.065 51.9702ZM143.717 78.9013C141.941 74.122 138.33 62.039 138.065 51.9702L136.066 52.0228C136.339 62.4109 140.034 74.7323 141.843 79.5982L143.717 78.9013ZM145.564 103.07C144.746 99.4643 143.416 90.2399 143.78 79.2829L141.781 79.2166C141.412 90.3422 142.757 99.7376 143.613 103.512L145.564 103.07ZM148.195 118.665C147.07 113.011 145.967 107.459 145.584 103.201L143.592 103.38C143.987 107.768 145.116 113.44 146.233 119.056L148.195 118.665ZM150.994 138.799C151.132 136.401 150.801 133.25 150.261 129.796C149.719 126.327 148.953 122.478 148.195 118.665L146.233 119.056C146.993 122.878 147.75 126.684 148.285 130.105C148.822 133.54 149.122 136.512 148.997 138.683L150.994 138.799ZM149.937 148.061C150.338 145.833 150.705 143.784 150.994 138.799L148.997 138.683C148.714 143.57 148.359 145.537 147.969 147.707L149.937 148.061ZM149.194 152.937C149.448 150.782 149.697 149.395 149.937 148.061L147.969 147.707C147.727 149.052 147.469 150.486 147.208 152.704L149.194 152.937ZM149.301 162.911C148.977 159.282 148.881 155.602 149.194 152.937L147.208 152.704C146.871 155.571 146.98 159.411 147.309 163.089L149.301 162.911ZM148.305 164H166.085V162H148.305V164ZM164.627 158.596C164.785 160.054 164.949 161.564 165.09 163.092L167.081 162.908C166.939 161.362 166.773 159.835 166.615 158.38L164.627 158.596ZM164.019 151.784C164.1 153.748 164.356 156.105 164.627 158.596L166.615 158.38C166.342 155.868 166.095 153.584 166.017 151.701L164.019 151.784ZM165.783 136.266C164.952 139.898 163.783 146.14 164.019 151.784L166.017 151.7C165.793 146.331 166.912 140.299 167.733 136.712L165.783 136.266ZM166.595 122.914C166.445 126.274 166.308 129.336 166.173 131.714C166.105 132.904 166.038 133.916 165.971 134.704C165.902 135.515 165.837 136.03 165.783 136.266L167.733 136.712C167.823 136.319 167.896 135.668 167.964 134.874C168.034 134.058 168.102 133.024 168.17 131.828C168.305 129.435 168.443 126.359 168.593 123.004L166.595 122.914ZM160.608 22.0563C160.608 20.9906 161.425 19.7177 163.427 18.6576L162.491 16.8901C160.203 18.1015 158.608 19.9095 158.608 22.0563H160.608ZM163.427 18.6576C165.397 17.6149 168.137 17 171.048 17V15C167.891 15 164.812 15.6612 162.491 16.8901L163.427 18.6576ZM171.048 17C173.959 17 176.7 17.6149 178.669 18.6576L179.605 16.8901C177.284 15.6612 174.205 15 171.048 15V17ZM178.669 18.6576C180.672 19.7177 181.488 20.9906 181.488 22.0563H183.488C183.488 19.9095 181.893 18.1015 179.605 16.8901L178.669 18.6576ZM170.327 94.7122H170.375V92.7122H170.327V94.7122ZM170.375 94.7122H170.424V92.7122H170.375V94.7122ZM170.424 92.7122C170.376 92.7122 170.329 92.7151 170.283 92.7205L170.517 94.7068C170.487 94.7104 170.456 94.7122 170.424 94.7122V92.7122ZM144.118 73.6168C145.583 56.8073 145.818 48.9243 144.099 41.0174L142.145 41.4423C143.79 49.0125 143.593 56.6067 142.125 73.4431L144.118 73.6168ZM143.78 79.2829C143.841 77.436 143.95 75.5412 144.118 73.6168L142.125 73.4431C141.954 75.4056 141.843 77.3364 141.781 79.2166L143.78 79.2829ZM170.594 22.0425L170.714 22.0423L170.71 20.0423L170.59 20.0425L170.594 22.0425ZM170.473 92.7122H170.424V94.7122H170.473V92.7122ZM170.375 94.7122C170.344 94.7122 170.313 94.7104 170.283 94.7068L170.517 92.7205C170.47 92.7151 170.423 92.7122 170.375 92.7122V94.7122ZM198.674 73.4431C197.206 56.6067 197.009 49.0125 198.655 41.4423L196.701 41.0174C194.982 48.9243 195.216 56.8073 196.682 73.6168L198.674 73.4431ZM199.019 79.2166C198.957 77.3364 198.845 75.4056 198.674 73.4431L196.682 73.6168C196.85 75.5412 196.959 77.436 197.02 79.2829L199.019 79.2166ZM170.594 20.0425L170.475 20.0423L170.471 22.0423L170.59 22.0425L170.594 20.0425Z" fill="#00DEA2"/>
<path d="M128 23H212" stroke="#3D3D3D" stroke-linecap="round"/>
<defs>
<filter id="filter0_d_1384_1093" x="0" y="0" width="340" height="215" filterUnits="userSpaceOnUse" color-interpolation-filters="sRGB">
<feFlood flood-opacity="0" result="BackgroundImageFix"/>
<feColorMatrix in="SourceAlpha" type="matrix" values="0 0 0 0 0 0 0 0 0 0 0 0 0 0 0 0 0 0 127 0" result="hardAlpha"/>
<feOffset dy="4"/>
<feGaussianBlur stdDeviation="2.5"/>
<feComposite in2="hardAlpha" operator="out"/>
<feColorMatrix type="matrix" values="0 0 0 0 0 0 0 0 0 0 0 0 0 0 0 0 0 0 0.1 0"/>
<feBlend mode="normal" in2="BackgroundImageFix" result="effect1_dropShadow_1384_1093"/>
<feBlend mode="normal" in="SourceGraphic" in2="effect1_dropShadow_1384_1093" result="shape"/>
</filter>
</defs>
</svg>
