<svg width="329" height="212" viewBox="0 0 329 212" fill="none" xmlns="http://www.w3.org/2000/svg">
<rect width="328.041" height="42.4" fill="#FF4A4A" fill-opacity="0.5"/>
<rect y="169.601" width="328.041" height="42.4" fill="#FF4A4A" fill-opacity="0.5"/>
<rect y="42.4004" width="328.041" height="42.4" fill="#FFE817" fill-opacity="0.4"/>
<rect y="127.2" width="328.041" height="42.4" fill="#FFE817" fill-opacity="0.4"/>
<rect y="84.7998" width="328.041" height="42.4" fill="#37FF16" fill-opacity="0.4"/>
<line x1="47.25" y1="1.12176e-08" x2="47.25" y2="212" stroke="#F9F9F9" stroke-width="0.5"/>
<line x1="94.25" y1="1.12176e-08" x2="94.25" y2="212" stroke="#F9F9F9" stroke-width="0.5"/>
<line x1="141.25" y1="1.12176e-08" x2="141.25" y2="212" stroke="#F9F9F9" stroke-width="0.5"/>
<line x1="188.25" y1="1.12176e-08" x2="188.25" y2="212" stroke="#F9F9F9" stroke-width="0.5"/>
<line x1="235.25" y1="1.12176e-08" x2="235.25" y2="212" stroke="#F9F9F9" stroke-width="0.5"/>
<line x1="282.25" y1="1.12176e-08" x2="282.25" y2="212" stroke="#F9F9F9" stroke-width="0.5"/>
<path d="M8.14 4.592C9.76 4.592 10.912 5.492 10.912 6.824C10.912 8.144 9.76 9.068 8.14 9.068C6.532 9.068 5.38 8.144 5.38 6.824C5.38 5.492 6.532 4.592 8.14 4.592ZM8.14 5.42C7.084 5.42 6.328 5.996 6.328 6.824C6.328 7.664 7.084 8.228 8.14 8.228C9.196 8.228 9.952 7.664 9.952 6.824C9.952 5.996 9.196 5.42 8.14 5.42ZM7.696 10.268H8.692V14.6H7.696V10.268ZM12.496 4.088H13.48V14.948H12.496V4.088ZM4.708 10.808L4.576 9.968C6.592 9.968 9.34 9.944 11.728 9.584L11.8 10.328C9.352 10.772 6.688 10.808 4.708 10.808ZM24.0391 4.088H25.0351V10.652H24.0391V4.088ZM22.2391 7.376H24.4831V8.204H22.2391V7.376ZM18.0031 11.228H25.0351V14.792H18.0031V11.228ZM24.0631 12.032H18.9751V13.988H24.0631V12.032ZM16.1311 5.216H22.4071V6.02H16.1311V5.216ZM19.2631 6.572C20.7271 6.572 21.7711 7.364 21.7711 8.516C21.7711 9.668 20.7271 10.436 19.2631 10.436C17.7991 10.436 16.7551 9.668 16.7551 8.516C16.7551 7.364 17.7991 6.572 19.2631 6.572ZM19.2631 7.34C18.3511 7.34 17.7031 7.808 17.7031 8.516C17.7031 9.212 18.3511 9.68 19.2631 9.68C20.1751 9.68 20.8231 9.212 20.8231 8.516C20.8231 7.808 20.1751 7.34 19.2631 7.34ZM18.7711 3.98H19.7671V5.792H18.7711V3.98Z" fill="#8C0000"/>
<path d="M8.992 52.296H9.976V53.952H8.992V52.296ZM5.896 47.256H6.88V48.264H12.124V47.256H13.12V50.832H5.896V47.256ZM6.88 49.032V50.064H12.124V49.032H6.88ZM4.588 51.72H14.392V52.524H4.588V51.72ZM5.776 53.58H13.144V55.992H6.784V57.336H5.8V55.272H12.16V54.336H5.776V53.58ZM5.8 57.048H13.468V57.816H5.8V57.048ZM23.5351 47.076H24.5311V55.068H23.5351V47.076ZM24.2191 50.376H26.1391V51.204H24.2191V50.376ZM17.7751 56.88H25.0231V57.696H17.7751V56.88ZM17.7751 54.252H18.7711V57.204H17.7751V54.252ZM19.1431 47.844C20.7631 47.844 21.9751 48.96 21.9751 50.52C21.9751 52.092 20.7631 53.196 19.1431 53.196C17.5231 53.196 16.3111 52.092 16.3111 50.52C16.3111 48.96 17.5231 47.844 19.1431 47.844ZM19.1431 48.72C18.0871 48.72 17.2831 49.464 17.2831 50.52C17.2831 51.588 18.0871 52.32 19.1431 52.32C20.1991 52.32 21.0031 51.588 21.0031 50.52C21.0031 49.464 20.1991 48.72 19.1431 48.72Z" fill="#95891F"/>
<path d="M12.016 89.076H13.012V97.068H12.016V89.076ZM12.7 92.376H14.62V93.204H12.7V92.376ZM6.256 98.88H13.504V99.696H6.256V98.88ZM6.256 96.252H7.252V99.204H6.256V96.252ZM7.624 89.844C9.244 89.844 10.456 90.96 10.456 92.52C10.456 94.092 9.244 95.196 7.624 95.196C6.004 95.196 4.792 94.092 4.792 92.52C4.792 90.96 6.004 89.844 7.624 89.844ZM7.624 90.72C6.568 90.72 5.764 91.464 5.764 92.52C5.764 93.588 6.568 94.32 7.624 94.32C8.68 94.32 9.484 93.588 9.484 92.52C9.484 91.464 8.68 90.72 7.624 90.72ZM21.8671 92.076H24.6031V92.892H21.8671V92.076ZM24.0391 89.1H25.0351V97.044H24.0391V89.1ZM18.1111 98.88H25.3351V99.696H18.1111V98.88ZM18.1111 96.348H19.1071V99.3H18.1111V96.348ZM18.8791 90.444H19.6951V91.32C19.6951 93.288 18.4711 94.992 16.6591 95.664L16.1431 94.872C17.7631 94.296 18.8791 92.856 18.8791 91.32V90.444ZM19.0711 90.444H19.8751V91.308C19.8751 92.712 20.9311 94.08 22.5031 94.632L21.9991 95.412C20.2351 94.776 19.0711 93.144 19.0711 91.308V90.444ZM16.4551 89.976H22.2511V90.78H16.4551V89.976Z" fill="#519F44"/>
<path d="M8.992 136.296H9.976V137.952H8.992V136.296ZM5.896 131.256H6.88V132.264H12.124V131.256H13.12V134.832H5.896V131.256ZM6.88 133.032V134.064H12.124V133.032H6.88ZM4.588 135.72H14.392V136.524H4.588V135.72ZM5.776 137.58H13.144V139.992H6.784V141.336H5.8V139.272H12.16V138.336H5.776V137.58ZM5.8 141.048H13.468V141.816H5.8V141.048ZM23.5351 131.076H24.5311V139.068H23.5351V131.076ZM24.2191 134.376H26.1391V135.204H24.2191V134.376ZM17.7751 140.88H25.0231V141.696H17.7751V140.88ZM17.7751 138.252H18.7711V141.204H17.7751V138.252ZM19.1431 131.844C20.7631 131.844 21.9751 132.96 21.9751 134.52C21.9751 136.092 20.7631 137.196 19.1431 137.196C17.5231 137.196 16.3111 136.092 16.3111 134.52C16.3111 132.96 17.5231 131.844 19.1431 131.844ZM19.1431 132.72C18.0871 132.72 17.2831 133.464 17.2831 134.52C17.2831 135.588 18.0871 136.32 19.1431 136.32C20.1991 136.32 21.0031 135.588 21.0031 134.52C21.0031 133.464 20.1991 132.72 19.1431 132.72Z" fill="#95891F"/>
<path d="M8.14 174.592C9.76 174.592 10.912 175.492 10.912 176.824C10.912 178.144 9.76 179.068 8.14 179.068C6.532 179.068 5.38 178.144 5.38 176.824C5.38 175.492 6.532 174.592 8.14 174.592ZM8.14 175.42C7.084 175.42 6.328 175.996 6.328 176.824C6.328 177.664 7.084 178.228 8.14 178.228C9.196 178.228 9.952 177.664 9.952 176.824C9.952 175.996 9.196 175.42 8.14 175.42ZM7.696 180.268H8.692V184.6H7.696V180.268ZM12.496 174.088H13.48V184.948H12.496V174.088ZM4.708 180.808L4.576 179.968C6.592 179.968 9.34 179.944 11.728 179.584L11.8 180.328C9.352 180.772 6.688 180.808 4.708 180.808ZM24.0391 174.088H25.0351V180.652H24.0391V174.088ZM22.2391 177.376H24.4831V178.204H22.2391V177.376ZM18.0031 181.228H25.0351V184.792H18.0031V181.228ZM24.0631 182.032H18.9751V183.988H24.0631V182.032ZM16.1311 175.216H22.4071V176.02H16.1311V175.216ZM19.2631 176.572C20.7271 176.572 21.7711 177.364 21.7711 178.516C21.7711 179.668 20.7271 180.436 19.2631 180.436C17.7991 180.436 16.7551 179.668 16.7551 178.516C16.7551 177.364 17.7991 176.572 19.2631 176.572ZM19.2631 177.34C18.3511 177.34 17.7031 177.808 17.7031 178.516C17.7031 179.212 18.3511 179.68 19.2631 179.68C20.1751 179.68 20.8231 179.212 20.8231 178.516C20.8231 177.808 20.1751 177.34 19.2631 177.34ZM18.7711 173.98H19.7671V175.792H18.7711V173.98Z" fill="#8C0000"/>
</svg>
