<svg width="340" height="215" viewBox="0 0 340 215" fill="none" xmlns="http://www.w3.org/2000/svg">
<g filter="url(#filter0_d_1379_1098)">
<rect x="5" y="1" width="330" height="205" rx="7" fill="white"/>
</g>
<ellipse cx="192.684" cy="67.671" rx="2.79704" ry="4.94946" transform="rotate(-14.0814 192.684 67.671)" fill="#00DEA2"/>
<path d="M207.053 89.6203C204.283 91.8368 196.414 94.7738 187.104 88.7891" stroke="#00DEA2" stroke-width="3" stroke-linecap="round" stroke-linejoin="round"/>
<path fill-rule="evenodd" clip-rule="evenodd" d="M206.64 111.227C208.303 90.17 206.64 47.225 183.367 36.4187C160.093 25.6124 140.144 43.0683 136.819 52.2116C133.494 61.3549 131.832 80.4732 146.794 92.9413C158.763 102.916 153.443 122.034 149.287 130.346C143.192 134.779 130.003 147.635 126.013 163.594C124.962 167.801 124.316 172.932 124 178.559H214.456C211.569 166.056 204.841 150.246 189.186 133.67C187.523 130.346 185.196 122.034 189.186 115.384C193.064 115.384 201.985 114.552 206.64 111.227Z" fill="#00DEA2" fill-opacity="0.3"/>
<path d="M183.367 36.4187L183.998 35.0582L183.998 35.0582L183.367 36.4187ZM206.64 111.227L207.512 112.448C207.873 112.191 208.101 111.787 208.136 111.345L206.64 111.227ZM136.819 52.2116L138.229 52.7242L138.229 52.7242L136.819 52.2116ZM146.794 92.9413L145.833 94.0937L145.833 94.0937L146.794 92.9413ZM149.287 130.346L150.169 131.559C150.364 131.417 150.521 131.231 150.629 131.016L149.287 130.346ZM126.013 163.594L124.558 163.23L124.558 163.23L126.013 163.594ZM124 178.559L122.502 178.474C122.479 178.886 122.627 179.289 122.91 179.589C123.193 179.889 123.588 180.059 124 180.059V178.559ZM214.456 178.559V180.059C214.913 180.059 215.345 179.85 215.63 179.492C215.914 179.135 216.02 178.666 215.917 178.221L214.456 178.559ZM189.186 133.67L187.844 134.341C187.91 134.473 187.994 134.594 188.095 134.7L189.186 133.67ZM189.186 115.384L189.186 113.884C188.659 113.884 188.171 114.16 187.9 114.612L189.186 115.384ZM182.735 37.7792C193.69 42.8656 199.79 55.6637 202.887 70.2896C205.965 84.8228 205.969 100.669 205.145 111.109L208.136 111.345C208.974 100.728 208.978 84.5734 205.822 69.6681C202.685 54.8557 196.317 40.7781 183.998 35.0582L182.735 37.7792ZM138.229 52.7242C139.727 48.6043 145.216 42.209 153.283 38.1757C161.259 34.1874 171.581 32.6004 182.735 37.7792L183.998 35.0582C171.878 29.4307 160.589 31.1685 151.941 35.4924C143.384 39.7713 137.236 46.6756 135.409 51.699L138.229 52.7242ZM147.754 91.789C133.492 79.9042 135.006 61.5869 138.229 52.7242L135.409 51.699C131.982 61.1229 130.172 81.0423 145.833 94.0937L147.754 91.789ZM150.629 131.016C152.777 126.719 155.22 119.659 155.585 112.342C155.952 105.02 154.239 97.193 147.754 91.789L145.833 94.0937C151.318 98.6641 152.93 105.383 152.589 112.192C152.249 119.005 149.953 125.66 147.945 129.675L150.629 131.016ZM127.469 163.958C131.338 148.48 144.215 135.889 150.169 131.559L148.405 129.133C142.168 133.668 128.668 146.79 124.558 163.23L127.469 163.958ZM125.498 178.643C125.811 173.069 126.448 168.04 127.469 163.958L124.558 163.23C123.475 167.562 122.822 172.796 122.502 178.474L125.498 178.643ZM124 180.059H214.456V177.059H124V180.059ZM188.095 134.7C203.558 151.072 210.164 166.64 212.994 178.896L215.917 178.221C212.973 165.473 206.124 149.42 190.276 132.641L188.095 134.7ZM187.9 114.612C185.693 118.29 185.263 122.375 185.572 125.905C185.88 129.428 186.934 132.52 187.844 134.341L190.527 133C189.776 131.496 188.834 128.769 188.561 125.643C188.288 122.523 188.689 119.127 190.472 116.156L187.9 114.612ZM205.769 110.007C203.711 111.476 200.577 112.466 197.343 113.078C194.146 113.683 191.04 113.884 189.186 113.884L189.186 116.884C191.21 116.884 194.503 116.668 197.901 116.026C201.26 115.391 204.915 114.303 207.512 112.448L205.769 110.007Z" fill="#00DEA2"/>
<path d="M124 179L204 29" stroke="#3D3D3D" stroke-width="1.5" stroke-linecap="round"/>
<path d="M116 162H224" stroke="#3D3D3D" stroke-width="1.5" stroke-linecap="round"/>
<mask id="path-8-inside-1_1379_1098" fill="white">
<path d="M145 162C145 159.835 144.414 157.71 143.305 155.851C142.195 153.991 140.603 152.467 138.698 151.439L133 162H145Z"/>
</mask>
<path d="M145 162C145 159.835 144.414 157.71 143.305 155.851C142.195 153.991 140.603 152.467 138.698 151.439L133 162H145Z" stroke="#3D3D3D" stroke-width="2" mask="url(#path-8-inside-1_1379_1098)"/>
<path d="M149.502 151.23H157.872V152.28H149.502V151.23ZM150.432 152.97H156.862V155.89H155.532V154.01H150.432V152.97ZM153.022 146.66H154.342V148.02H153.022V146.66ZM152.942 148.12H154.112V148.31C154.112 149.71 152.772 150.7 150.252 150.88L149.852 149.88C152.082 149.74 152.942 149.02 152.942 148.31V148.12ZM153.252 148.12H154.422V148.31C154.422 149.02 155.282 149.74 157.512 149.88L157.112 150.88C154.582 150.7 153.252 149.71 153.252 148.31V148.12ZM150.302 147.49H157.072V148.52H150.302V147.49ZM163.721 148.87H165.481V149.95H163.721V148.87ZM165.121 146.63H166.451V152.13H165.121V146.63ZM163.311 152.33C165.271 152.33 166.481 153 166.481 154.12C166.481 155.25 165.271 155.9 163.311 155.9C161.351 155.9 160.141 155.25 160.141 154.12C160.141 153 161.351 152.33 163.311 152.33ZM163.311 153.34C162.111 153.34 161.471 153.59 161.471 154.12C161.471 154.64 162.111 154.89 163.311 154.89C164.521 154.89 165.161 154.64 165.161 154.12C165.161 153.59 164.521 153.34 163.311 153.34ZM160.841 147.56H161.921V148.14C161.921 149.91 161.101 151.53 159.331 152.13L158.651 151.08C160.181 150.56 160.841 149.33 160.841 148.14V147.56ZM161.121 147.56H162.191V148.14C162.191 149.23 162.821 150.36 164.281 150.85L163.631 151.9C161.911 151.33 161.121 149.79 161.121 148.14V147.56ZM159.011 147.19H163.991V148.25H159.011V147.19ZM173.86 146.63H175.19V152H173.86V146.63ZM174.82 148.78H176.42V149.88H174.82V148.78ZM171.2 147.15H172.61C172.61 149.62 171.07 151.29 168.32 152L167.78 150.98C170.06 150.4 171.2 149.21 171.2 147.81V147.15ZM168.24 147.15H172V148.2H168.24V147.15ZM169.01 152.39H175.19V155.89H173.86V153.44H169.01V152.39ZM178.079 150.76H184.589V151.82H178.079V150.76ZM177.109 153.76H185.489V154.85H177.109V153.76ZM180.619 151.24H181.949V154.11H180.619V151.24ZM178.079 147.26H184.519V148.33H179.409V151.22H178.079V147.26Z" fill="#3D3D3D"/>
<defs>
<filter id="filter0_d_1379_1098" x="0" y="0" width="340" height="215" filterUnits="userSpaceOnUse" color-interpolation-filters="sRGB">
<feFlood flood-opacity="0" result="BackgroundImageFix"/>
<feColorMatrix in="SourceAlpha" type="matrix" values="0 0 0 0 0 0 0 0 0 0 0 0 0 0 0 0 0 0 127 0" result="hardAlpha"/>
<feOffset dy="4"/>
<feGaussianBlur stdDeviation="2.5"/>
<feComposite in2="hardAlpha" operator="out"/>
<feColorMatrix type="matrix" values="0 0 0 0 0 0 0 0 0 0 0 0 0 0 0 0 0 0 0.1 0"/>
<feBlend mode="normal" in2="BackgroundImageFix" result="effect1_dropShadow_1379_1098"/>
<feBlend mode="normal" in="SourceGraphic" in2="effect1_dropShadow_1379_1098" result="shape"/>
</filter>
</defs>
</svg>
