<svg width="340" height="215" viewBox="0 0 340 215" fill="none" xmlns="http://www.w3.org/2000/svg">
<g filter="url(#filter0_d_1382_1162)">
<rect x="5" y="1" width="330" height="205" rx="7" fill="white"/>
</g>
<path d="M144.591 176.364V188H141.785V178.989H141.716L139.114 180.58V178.148L141.983 176.364H144.591ZM152.349 188.159C151.444 188.159 150.635 188.015 149.923 187.727C149.215 187.436 148.658 187.042 148.253 186.545C147.851 186.045 147.65 185.481 147.65 184.852C147.65 184.371 147.766 183.93 147.997 183.528C148.228 183.127 148.541 182.794 148.935 182.528C149.332 182.259 149.775 182.087 150.264 182.011V181.92C149.624 181.803 149.099 181.506 148.69 181.028C148.285 180.551 148.082 179.992 148.082 179.352C148.082 178.746 148.266 178.206 148.633 177.733C149.005 177.259 149.51 176.886 150.15 176.614C150.794 176.341 151.527 176.205 152.349 176.205C153.171 176.205 153.902 176.341 154.543 176.614C155.186 176.886 155.692 177.259 156.06 177.733C156.431 178.206 156.616 178.746 156.616 179.352C156.616 179.996 156.41 180.557 155.997 181.034C155.588 181.508 155.067 181.803 154.435 181.92V182.011C154.919 182.087 155.359 182.259 155.753 182.528C156.15 182.794 156.465 183.127 156.696 183.528C156.931 183.93 157.048 184.371 157.048 184.852C157.048 185.481 156.846 186.045 156.44 186.545C156.035 187.042 155.478 187.436 154.77 187.727C154.065 188.015 153.258 188.159 152.349 188.159ZM152.349 186.165C152.694 186.165 152.997 186.1 153.258 185.972C153.52 185.839 153.724 185.655 153.872 185.42C154.024 185.186 154.099 184.92 154.099 184.625C154.099 184.322 154.024 184.053 153.872 183.818C153.721 183.583 153.512 183.4 153.247 183.267C152.986 183.131 152.686 183.062 152.349 183.062C152.016 183.062 151.717 183.131 151.452 183.267C151.186 183.4 150.978 183.583 150.827 183.818C150.675 184.053 150.599 184.322 150.599 184.625C150.599 184.92 150.673 185.186 150.821 185.42C150.972 185.652 151.179 185.833 151.44 185.966C151.705 186.098 152.008 186.165 152.349 186.165ZM152.349 181.08C152.645 181.08 152.906 181.019 153.133 180.898C153.364 180.777 153.544 180.608 153.673 180.392C153.806 180.176 153.872 179.932 153.872 179.659C153.872 179.386 153.806 179.146 153.673 178.938C153.544 178.729 153.366 178.566 153.139 178.449C152.912 178.328 152.649 178.267 152.349 178.267C152.054 178.267 151.791 178.328 151.56 178.449C151.329 178.566 151.149 178.729 151.02 178.938C150.891 179.146 150.827 179.386 150.827 179.659C150.827 179.932 150.891 180.176 151.02 180.392C151.152 180.604 151.334 180.773 151.565 180.898C151.796 181.019 152.058 181.08 152.349 181.08ZM164.069 188.284C163.054 188.284 162.179 188.044 161.444 187.562C160.709 187.078 160.143 186.383 159.745 185.477C159.347 184.568 159.15 183.475 159.154 182.199C159.158 180.922 159.357 179.839 159.751 178.949C160.148 178.055 160.713 177.375 161.444 176.909C162.179 176.439 163.054 176.205 164.069 176.205C165.084 176.205 165.959 176.439 166.694 176.909C167.433 177.375 168.001 178.055 168.398 178.949C168.796 179.843 168.993 180.926 168.989 182.199C168.989 183.479 168.79 184.574 168.393 185.483C167.995 186.392 167.429 187.087 166.694 187.568C165.963 188.045 165.088 188.284 164.069 188.284ZM164.069 185.983C164.675 185.983 165.165 185.674 165.54 185.057C165.915 184.436 166.101 183.483 166.097 182.199C166.097 181.358 166.012 180.665 165.842 180.119C165.671 179.57 165.434 179.161 165.131 178.892C164.828 178.623 164.474 178.489 164.069 178.489C163.467 178.489 162.98 178.794 162.609 179.403C162.237 180.009 162.05 180.941 162.046 182.199C162.042 183.051 162.124 183.758 162.29 184.318C162.461 184.879 162.7 185.297 163.006 185.574C163.313 185.847 163.667 185.983 164.069 185.983ZM171.263 188V179.273H173.905V180.875H174.002C174.183 180.345 174.49 179.926 174.922 179.619C175.354 179.312 175.869 179.159 176.467 179.159C177.073 179.159 177.592 179.314 178.024 179.625C178.456 179.936 178.731 180.352 178.848 180.875H178.939C179.102 180.356 179.42 179.941 179.894 179.631C180.367 179.316 180.926 179.159 181.57 179.159C182.395 179.159 183.066 179.424 183.581 179.955C184.096 180.481 184.354 181.205 184.354 182.125V188H181.575V182.761C181.575 182.326 181.464 181.994 181.24 181.767C181.017 181.536 180.727 181.42 180.371 181.42C179.988 181.42 179.687 181.545 179.467 181.795C179.252 182.042 179.144 182.373 179.144 182.79V188H176.473V182.733C176.473 182.328 176.363 182.008 176.144 181.773C175.924 181.538 175.634 181.42 175.274 181.42C175.032 181.42 174.818 181.479 174.632 181.597C174.447 181.71 174.301 181.873 174.195 182.085C174.092 182.297 174.041 182.547 174.041 182.835V188H171.263ZM186.715 188V179.273H189.357V180.875H189.454C189.636 180.345 189.943 179.926 190.374 179.619C190.806 179.312 191.321 179.159 191.92 179.159C192.526 179.159 193.045 179.314 193.477 179.625C193.909 179.936 194.183 180.352 194.301 180.875H194.392C194.554 180.356 194.873 179.941 195.346 179.631C195.82 179.316 196.378 179.159 197.022 179.159C197.848 179.159 198.518 179.424 199.034 179.955C199.549 180.481 199.806 181.205 199.806 182.125V188H197.028V182.761C197.028 182.326 196.916 181.994 196.693 181.767C196.469 181.536 196.179 181.42 195.823 181.42C195.441 181.42 195.14 181.545 194.92 181.795C194.704 182.042 194.596 182.373 194.596 182.79V188H191.926V182.733C191.926 182.328 191.816 182.008 191.596 181.773C191.376 181.538 191.087 181.42 190.727 181.42C190.484 181.42 190.27 181.479 190.085 181.597C189.899 181.71 189.753 181.873 189.647 182.085C189.545 182.297 189.494 182.547 189.494 182.835V188H186.715Z" fill="#595959"/>
<ellipse cx="180.827" cy="32.3757" rx="1.32107" ry="2.33768" transform="rotate(-14.0814 180.827 32.3757)" fill="#00DEA2"/>
<path d="M187.614 42.7412C186.305 43.7881 182.589 45.1753 178.192 42.3486" stroke="#00DEA2" stroke-width="2" stroke-linecap="round" stroke-linejoin="round"/>
<path fill-rule="evenodd" clip-rule="evenodd" d="M187.419 52.9474C188.204 43.0019 187.419 22.7186 176.426 17.6147C165.434 12.5108 156.012 20.7554 154.442 25.0738C152.871 29.3923 152.086 38.422 159.153 44.3108C164.806 49.0219 162.293 58.0514 160.33 61.9772C157.451 64.071 151.222 70.143 149.338 77.6807C146.982 87.1028 148.945 106.339 151.301 113.799C153.656 121.258 156.797 136.569 154.834 140.887C154.372 141.905 153.56 143.162 152.611 144.634C149.884 148.86 146.018 154.851 146 162H192.055C193.008 145.912 193.319 129.184 192.13 121.258C190.246 108.695 190.037 102.675 190.167 101.236C190.822 100.843 192.13 99.1159 192.13 95.3471C192.13 95.2219 192.131 95.0909 192.131 94.9542C192.141 89.9467 192.168 77.3051 179.175 63.5476C178.39 61.9772 177.291 58.0514 179.175 54.9107C181.007 54.9105 185.22 54.5176 187.419 52.9474Z" fill="#00DEA2" fill-opacity="0.3"/>
<path d="M187.419 52.9474L188.145 53.9647C188.446 53.7502 188.636 53.4138 188.665 53.0458L187.419 52.9474ZM154.442 25.0738L153.267 24.6466L153.267 24.6466L154.442 25.0738ZM159.153 44.3108L159.953 43.3505L159.953 43.3505L159.153 44.3108ZM160.33 61.9772L161.066 62.9881C161.228 62.8703 161.359 62.7154 161.448 62.5362L160.33 61.9772ZM149.338 77.6807L148.125 77.3775L148.125 77.3775L149.338 77.6807ZM151.301 113.799L150.109 114.175L150.109 114.175L151.301 113.799ZM154.834 140.887L155.972 141.404L155.972 141.404L154.834 140.887ZM152.611 144.634L151.56 143.956L151.56 143.956L152.611 144.634ZM146 162L144.75 161.997C144.749 162.329 144.88 162.648 145.115 162.883C145.349 163.118 145.668 163.25 146 163.25V162ZM192.055 162V163.25C192.716 163.25 193.263 162.735 193.302 162.074L192.055 162ZM192.13 121.258L193.366 121.072L193.366 121.072L192.13 121.258ZM190.167 101.236L189.524 100.164C189.182 100.369 188.959 100.725 188.923 101.123L190.167 101.236ZM192.131 94.9542L193.381 94.9568L193.381 94.9568L192.131 94.9542ZM179.175 63.5476L178.057 64.1066C178.112 64.216 178.182 64.3169 178.266 64.4058L179.175 63.5476ZM179.175 54.9107L179.175 53.6607C178.736 53.6607 178.329 53.8911 178.103 54.2675L179.175 54.9107ZM175.9 18.7484C180.828 21.0364 183.661 26.8501 185.116 33.7244C186.556 40.5214 186.56 47.9502 186.173 52.8491L188.665 53.0458C189.063 47.9991 189.067 40.3136 187.562 33.2065C186.074 26.1768 183.018 19.2968 176.953 16.4809L175.9 18.7484ZM155.616 25.501C156.265 23.7182 158.739 20.7896 162.46 18.9289C166.106 17.1058 170.807 16.3834 175.9 18.7484L176.953 16.4809C171.054 13.742 165.547 14.59 161.342 16.6928C157.211 18.7581 154.189 22.1109 153.267 24.6466L155.616 25.501ZM159.953 43.3505C153.47 37.9478 154.131 29.5856 155.616 25.501L153.267 24.6466C151.612 29.1989 150.703 38.8962 158.352 45.2711L159.953 43.3505ZM161.448 62.5362C162.489 60.4558 163.669 57.0478 163.846 53.5009C164.024 49.95 163.196 46.0534 159.953 43.3505L158.352 45.2711C160.762 47.2793 161.505 50.253 161.349 53.376C161.193 56.5031 160.135 59.5728 159.212 61.4182L161.448 62.5362ZM150.551 77.9838C152.335 70.8473 158.304 64.9964 161.066 62.9881L159.595 60.9663C156.599 63.1456 150.11 69.4387 148.125 77.3775L150.551 77.9838ZM152.493 113.422C151.358 109.828 150.288 103.266 149.8 96.3873C149.311 89.4953 149.423 82.4946 150.551 77.9838L148.125 77.3775C146.897 82.2888 146.813 89.6175 147.306 96.5642C147.8 103.524 148.888 110.31 150.109 114.175L152.493 113.422ZM155.972 141.404C156.591 140.044 156.747 138.024 156.691 135.85C156.634 133.616 156.344 131.006 155.922 128.326C155.078 122.968 153.69 117.214 152.493 113.422L150.109 114.175C151.267 117.842 152.627 123.474 153.452 128.715C153.865 131.335 154.139 133.829 154.192 135.914C154.247 138.058 154.059 139.571 153.696 140.37L155.972 141.404ZM153.661 145.312C154.59 143.872 155.463 142.525 155.972 141.404L153.696 140.37C153.281 141.284 152.531 142.453 151.56 143.956L153.661 145.312ZM147.25 162.003C147.267 155.273 150.91 149.576 153.661 145.312L151.56 143.956C148.858 148.144 144.769 154.43 144.75 161.997L147.25 162.003ZM146 163.25H192.055V160.75H146V163.25ZM190.894 121.443C192.061 129.219 191.761 145.817 190.807 161.926L193.302 162.074C194.254 146.006 194.578 129.149 193.366 121.072L190.894 121.443ZM188.923 101.123C188.776 102.732 189.011 108.892 190.894 121.443L193.366 121.072C191.48 108.498 191.297 102.619 191.412 101.349L188.923 101.123ZM190.88 95.3471C190.88 97.0878 190.578 98.2902 190.246 99.0642C190.079 99.4523 189.906 99.7289 189.763 99.9127C189.613 100.107 189.518 100.168 189.524 100.164L190.811 102.308C191.441 101.93 192.073 101.144 192.543 100.051C193.028 98.9208 193.38 97.3752 193.38 95.3471H190.88ZM190.881 94.9515C190.881 95.0879 190.88 95.2203 190.88 95.3471H193.38C193.38 95.2235 193.381 95.0938 193.381 94.9568L190.881 94.9515ZM178.266 64.4058C190.94 77.8248 190.891 90.0806 190.881 94.9516L193.381 94.9568C193.392 89.8128 193.397 76.7854 180.084 62.6893L178.266 64.4058ZM178.103 54.2675C176.984 56.1321 176.776 58.1859 176.929 59.9269C177.081 61.6629 177.598 63.189 178.057 64.1066L180.293 62.9885C179.967 62.3358 179.542 61.1137 179.419 59.709C179.297 58.3093 179.481 56.8299 180.247 55.5538L178.103 54.2675ZM186.693 51.9302C185.818 52.5547 184.432 53.0049 182.927 53.2896C181.453 53.5683 180.02 53.6606 179.175 53.6607L179.175 56.1607C180.161 56.1606 181.751 56.0563 183.392 55.746C185.001 55.4416 186.821 54.9103 188.145 53.9647L186.693 51.9302Z" fill="#00DEA2"/>
<path d="M180 155L180 72" stroke="#3D3D3D" stroke-linecap="round"/>
<path d="M158 81L158 67" stroke="#3D3D3D" stroke-linecap="round"/>
<path d="M158 76H180" stroke="#3D3D3D" stroke-linecap="round"/>
<circle cx="180" cy="154" r="2" fill="#FF4A4A"/>
<circle cx="158" cy="66" r="2" fill="#FF4A4A"/>
<path d="M140.502 90.23H148.872V91.28H140.502V90.23ZM141.432 91.97H147.862V94.89H146.532V93.01H141.432V91.97ZM144.022 85.66H145.342V87.02H144.022V85.66ZM143.942 87.12H145.112V87.31C145.112 88.71 143.772 89.7 141.252 89.88L140.852 88.88C143.082 88.74 143.942 88.02 143.942 87.31V87.12ZM144.252 87.12H145.422V87.31C145.422 88.02 146.282 88.74 148.512 88.88L148.112 89.88C145.582 89.7 144.252 88.71 144.252 87.31V87.12ZM141.302 86.49H148.072V87.52H141.302V86.49ZM154.721 87.87H156.481V88.95H154.721V87.87ZM156.121 85.63H157.451V91.13H156.121V85.63ZM154.311 91.33C156.271 91.33 157.481 92 157.481 93.12C157.481 94.25 156.271 94.9 154.311 94.9C152.351 94.9 151.141 94.25 151.141 93.12C151.141 92 152.351 91.33 154.311 91.33ZM154.311 92.34C153.111 92.34 152.471 92.59 152.471 93.12C152.471 93.64 153.111 93.89 154.311 93.89C155.521 93.89 156.161 93.64 156.161 93.12C156.161 92.59 155.521 92.34 154.311 92.34ZM151.841 86.56H152.921V87.14C152.921 88.91 152.101 90.53 150.331 91.13L149.651 90.08C151.181 89.56 151.841 88.33 151.841 87.14V86.56ZM152.121 86.56H153.191V87.14C153.191 88.23 153.821 89.36 155.281 89.85L154.631 90.9C152.911 90.33 152.121 88.79 152.121 87.14V86.56ZM150.011 86.19H154.991V87.25H150.011V86.19ZM165.32 85.63H166.65V94.89H165.32V85.63ZM163.53 89.18H165.96V90.26H163.53V89.18ZM162.28 86.59H163.59C163.59 89.4 162.7 91.69 159.49 93.3L158.79 92.26C161.41 90.96 162.28 89.28 162.28 86.83V86.59ZM159.23 86.59H162.98V87.64H159.23V86.59ZM174.479 85.62H175.809V94.91H174.479V85.62ZM168.599 91.67H169.419C171.059 91.67 172.369 91.61 173.839 91.36L173.969 92.43C172.469 92.7 171.109 92.75 169.419 92.75H168.599V91.67ZM168.589 86.41H172.959V89.99H169.949V92.07H168.599V88.94H171.599V87.47H168.589V86.41Z" fill="#3D3D3D"/>
<defs>
<filter id="filter0_d_1382_1162" x="0" y="0" width="340" height="215" filterUnits="userSpaceOnUse" color-interpolation-filters="sRGB">
<feFlood flood-opacity="0" result="BackgroundImageFix"/>
<feColorMatrix in="SourceAlpha" type="matrix" values="0 0 0 0 0 0 0 0 0 0 0 0 0 0 0 0 0 0 127 0" result="hardAlpha"/>
<feOffset dy="4"/>
<feGaussianBlur stdDeviation="2.5"/>
<feComposite in2="hardAlpha" operator="out"/>
<feColorMatrix type="matrix" values="0 0 0 0 0 0 0 0 0 0 0 0 0 0 0 0 0 0 0.1 0"/>
<feBlend mode="normal" in2="BackgroundImageFix" result="effect1_dropShadow_1382_1162"/>
<feBlend mode="normal" in="SourceGraphic" in2="effect1_dropShadow_1382_1162" result="shape"/>
</filter>
</defs>
</svg>
