<svg width="358" height="480" viewBox="0 0 358 480" fill="none" xmlns="http://www.w3.org/2000/svg">
<g filter="url(#filter0_bd_1295_2918)">
<rect x="14" y="10" width="330" height="452" rx="10" fill="white"/>
</g>
<path d="M178.855 47.0156C178.855 47.0156 196.028 45.9712 197.38 60.9925C198.063 68.5675 197.38 70.1125 197.38 70.1125C197.38 70.1125 202.145 69.4401 201.942 74.5402C201.738 79.6403 196.835 81.9864 196.835 81.9864C196.835 81.9864 195.651 90.8132 190.369 93.2166C185.807 95.2981 193.224 107.472 210.485 108.674C219.442 109.304 231.429 116.821 233.267 135.026C235.105 153.23 234.597 152.429 238.374 162.686C242.152 172.944 238.033 177.335 242.392 192.893C246.75 208.451 243.932 238.086 244.978 253.651C245.523 261.726 235.853 268.271 234.357 267.198C232.86 266.125 239.805 260.761 240.212 256.204C240.619 251.648 239.261 246.283 236.26 244.802C233.26 243.322 230.95 251.24 229.039 249.895C227.129 248.55 235.577 240.775 232.715 231.119C229.853 221.462 220.46 196.52 222.225 185.79C223.99 175.061 211.466 151.385 210.921 150.791C207.979 147.572 207.376 192.629 211.953 207.113C214.946 216.598 218.687 246.598 217.321 261.726C215.963 276.855 208.604 302.605 209.286 314.408C209.969 326.21 210.943 326.747 211.953 335.33C212.962 343.914 211.19 358.935 209.424 365.509C207.659 372.082 196.755 394.342 198.121 403.462C199.479 412.582 208.066 422.239 210.79 422.911C213.515 423.584 213.108 426.931 211.197 427.067C209.286 427.203 184.231 427.067 184.231 427.067C184.231 427.067 183.279 413.655 185.458 404.671C187.638 395.687 186.548 377.983 185.19 367.39C183.831 356.796 186.599 342.49 186.962 333.728C187.304 325.545 185.604 316.425 184.376 311.06C183.148 305.696 182.4 247.492 178.927 247.492H179.073C175.6 247.492 174.852 305.696 173.624 311.06C172.396 316.425 170.696 325.545 171.038 333.728C171.401 342.49 174.169 356.796 172.81 367.39C171.452 377.983 170.362 395.687 172.542 404.671C174.721 413.655 173.769 427.067 173.769 427.067C173.769 427.067 148.706 427.203 146.803 427.067C144.9 426.931 144.485 423.584 147.21 422.911C149.934 422.239 158.514 412.582 159.879 403.462C161.238 394.342 150.348 372.082 148.576 365.509C146.803 358.935 145.038 343.914 146.047 335.33C147.057 326.747 148.031 326.21 148.714 314.408C149.396 302.605 142.037 276.855 140.679 261.726C139.32 246.598 143.054 216.591 146.047 207.113C150.624 192.629 150.021 147.572 147.079 150.791C146.534 151.392 134.003 175.061 135.775 185.79C137.548 196.52 128.147 221.462 125.285 231.119C122.423 240.775 130.871 248.55 128.961 249.895C127.05 251.24 124.74 243.322 121.74 244.802C118.739 246.283 117.381 251.641 117.788 256.204C118.195 260.768 125.14 266.125 123.643 267.198C122.147 268.271 112.477 261.726 113.022 253.651C114.076 238.093 111.25 208.451 115.608 192.893C119.967 177.335 115.848 172.944 119.626 162.686C123.403 152.429 122.895 153.23 124.733 135.026C126.571 116.821 138.558 109.296 147.515 108.674C164.783 107.465 172.193 95.2909 167.631 93.2166C162.349 90.8132 161.165 81.9864 161.165 81.9864C161.165 81.9864 156.262 79.6403 156.058 74.5402C155.855 69.4473 160.62 70.1125 160.62 70.1125C160.62 70.1125 159.937 68.5675 160.62 60.9925C161.957 45.9712 179.131 47.0156 179.131 47.0156" fill="#00DEA2" fill-opacity="0.3"/>
<path d="M178.855 47.0156C178.855 47.0156 196.028 45.9712 197.38 60.9925C198.063 68.5675 197.38 70.1125 197.38 70.1125C197.38 70.1125 202.145 69.4401 201.942 74.5402C201.738 79.6403 196.835 81.9864 196.835 81.9864C196.835 81.9864 195.651 90.8132 190.369 93.2166C185.807 95.2981 193.224 107.472 210.485 108.674C219.442 109.304 231.429 116.821 233.267 135.026C235.105 153.23 234.597 152.429 238.374 162.686C242.152 172.944 238.033 177.336 242.392 192.893C246.75 208.451 243.932 238.086 244.978 253.651C245.523 261.726 235.853 268.271 234.357 267.198C232.86 266.125 239.805 260.761 240.212 256.204C240.619 251.648 239.261 246.283 236.26 244.802C233.26 243.322 230.95 251.24 229.039 249.895C227.129 248.55 235.577 240.775 232.715 231.119C229.853 221.462 220.46 196.52 222.225 185.79C223.99 175.061 211.466 151.385 210.921 150.791C207.979 147.572 207.376 192.629 211.953 207.113C214.946 216.598 218.687 246.598 217.321 261.726C215.963 276.855 208.604 302.605 209.286 314.408C209.969 326.21 210.943 326.747 211.953 335.33C212.962 343.914 211.19 358.935 209.424 365.509C207.659 372.082 196.755 394.342 198.121 403.462C199.479 412.582 208.066 422.239 210.79 422.911C213.515 423.584 213.108 426.931 211.197 427.067C209.286 427.203 184.231 427.067 184.231 427.067C184.231 427.067 183.279 413.655 185.458 404.671C187.638 395.687 186.548 377.983 185.19 367.39C183.831 356.796 186.599 342.49 186.962 333.728C187.304 325.545 185.604 316.425 184.376 311.06C183.148 305.696 182.4 247.492 178.927 247.492H179.073C175.6 247.492 174.852 305.696 173.624 311.06C172.396 316.425 170.696 325.545 171.038 333.728C171.401 342.49 174.169 356.796 172.81 367.39C171.452 377.983 170.362 395.687 172.542 404.671C174.721 413.655 173.769 427.067 173.769 427.067C173.769 427.067 148.706 427.203 146.803 427.067C144.9 426.931 144.485 423.584 147.21 422.911C149.934 422.239 158.514 412.582 159.879 403.462C161.238 394.342 150.348 372.082 148.576 365.509C146.803 358.935 145.038 343.914 146.047 335.33C147.057 326.747 148.031 326.21 148.714 314.408C149.396 302.605 142.037 276.855 140.679 261.726C139.32 246.598 143.054 216.591 146.047 207.113C150.624 192.629 150.021 147.572 147.079 150.791C146.534 151.392 134.003 175.061 135.775 185.79C137.548 196.52 128.147 221.462 125.285 231.119C122.423 240.775 130.871 248.55 128.961 249.895C127.05 251.24 124.74 243.322 121.74 244.802C118.739 246.283 117.381 251.641 117.788 256.204C118.195 260.768 125.14 266.125 123.643 267.198C122.147 268.271 112.477 261.726 113.022 253.651C114.076 238.093 111.25 208.451 115.608 192.893C119.967 177.336 115.848 172.944 119.626 162.686C123.403 152.429 122.895 153.23 124.733 135.026C126.571 116.821 138.558 109.296 147.515 108.674C164.783 107.465 172.193 95.2909 167.631 93.2166C162.349 90.8132 161.165 81.9864 161.165 81.9864C161.165 81.9864 156.262 79.6403 156.058 74.5402C155.855 69.4473 160.62 70.1125 160.62 70.1125C160.62 70.1125 159.937 68.5675 160.62 60.9925C161.957 45.9712 179.131 47.0156 179.131 47.0156" stroke="#00DEA2" stroke-width="3" stroke-miterlimit="10"/>
<defs>
<filter id="filter0_bd_1295_2918" x="0" y="-2" width="358" height="482" filterUnits="userSpaceOnUse" color-interpolation-filters="sRGB">
<feFlood flood-opacity="0" result="BackgroundImageFix"/>
<feGaussianBlur in="BackgroundImageFix" stdDeviation="6"/>
<feComposite in2="SourceAlpha" operator="in" result="effect1_backgroundBlur_1295_2918"/>
<feColorMatrix in="SourceAlpha" type="matrix" values="0 0 0 0 0 0 0 0 0 0 0 0 0 0 0 0 0 0 127 0" result="hardAlpha"/>
<feOffset dy="4"/>
<feGaussianBlur stdDeviation="7"/>
<feComposite in2="hardAlpha" operator="out"/>
<feColorMatrix type="matrix" values="0 0 0 0 0 0 0 0 0 0 0 0 0 0 0 0 0 0 0.1 0"/>
<feBlend mode="normal" in2="effect1_backgroundBlur_1295_2918" result="effect2_dropShadow_1295_2918"/>
<feBlend mode="normal" in="SourceGraphic" in2="effect2_dropShadow_1295_2918" result="shape"/>
</filter>
</defs>
</svg>
