<svg width="340" height="215" viewBox="0 0 340 215" fill="none" xmlns="http://www.w3.org/2000/svg">
<g filter="url(#filter0_d_1381_1111)">
<rect x="5" y="1" width="330" height="205" rx="7" fill="white"/>
</g>
<path d="M148.61 188.159C147.973 188.159 147.363 188.057 146.78 187.852C146.197 187.644 145.678 187.314 145.223 186.864C144.769 186.409 144.411 185.814 144.149 185.08C143.888 184.341 143.759 183.441 143.763 182.381C143.767 181.422 143.884 180.562 144.115 179.801C144.346 179.036 144.676 178.386 145.104 177.852C145.536 177.318 146.051 176.911 146.649 176.631C147.252 176.347 147.924 176.205 148.666 176.205C149.481 176.205 150.199 176.364 150.82 176.682C151.445 176.996 151.945 177.42 152.32 177.955C152.695 178.485 152.916 179.076 152.985 179.727H150.218C150.134 179.36 149.951 179.081 149.666 178.892C149.386 178.699 149.053 178.602 148.666 178.602C147.954 178.602 147.422 178.911 147.07 179.528C146.721 180.146 146.543 180.972 146.536 182.006H146.61C146.769 181.657 146.998 181.358 147.297 181.108C147.596 180.858 147.939 180.667 148.326 180.534C148.716 180.398 149.129 180.33 149.564 180.33C150.261 180.33 150.877 180.491 151.411 180.812C151.945 181.134 152.363 181.576 152.666 182.136C152.969 182.693 153.119 183.331 153.115 184.051C153.119 184.862 152.93 185.578 152.547 186.199C152.165 186.816 151.634 187.297 150.956 187.642C150.282 187.987 149.5 188.159 148.61 188.159ZM148.593 186C148.937 186 149.246 185.919 149.519 185.756C149.791 185.593 150.005 185.371 150.161 185.091C150.316 184.811 150.392 184.494 150.388 184.142C150.392 183.786 150.316 183.47 150.161 183.193C150.009 182.917 149.797 182.697 149.524 182.534C149.255 182.371 148.947 182.29 148.598 182.29C148.344 182.29 148.108 182.337 147.888 182.432C147.668 182.527 147.477 182.659 147.314 182.83C147.155 182.996 147.03 183.193 146.939 183.42C146.848 183.644 146.801 183.886 146.797 184.148C146.801 184.492 146.88 184.805 147.036 185.085C147.191 185.366 147.403 185.589 147.672 185.756C147.941 185.919 148.248 186 148.593 186ZM159.805 188.159C158.957 188.159 158.203 188.006 157.544 187.699C156.885 187.392 156.364 186.97 155.981 186.432C155.602 185.894 155.405 185.277 155.39 184.58H158.118C158.14 185.008 158.314 185.352 158.64 185.614C158.966 185.871 159.354 186 159.805 186C160.157 186 160.47 185.922 160.743 185.767C161.015 185.612 161.229 185.394 161.385 185.114C161.54 184.83 161.616 184.504 161.612 184.136C161.616 183.761 161.538 183.434 161.379 183.153C161.224 182.873 161.008 182.655 160.731 182.5C160.458 182.341 160.144 182.261 159.788 182.261C159.451 182.258 159.131 182.331 158.828 182.483C158.528 182.634 158.301 182.841 158.146 183.102L155.663 182.636L156.169 176.364H163.635V178.631H158.481L158.214 181.375H158.282C158.475 181.053 158.786 180.788 159.214 180.58C159.646 180.367 160.136 180.261 160.686 180.261C161.383 180.261 162.004 180.424 162.549 180.75C163.099 181.072 163.53 181.519 163.845 182.091C164.163 182.663 164.322 183.318 164.322 184.057C164.322 184.856 164.133 185.564 163.754 186.182C163.379 186.799 162.852 187.284 162.174 187.636C161.5 187.985 160.71 188.159 159.805 188.159ZM166.529 188V179.273H169.171V180.875H169.267C169.449 180.345 169.756 179.926 170.188 179.619C170.62 179.312 171.135 179.159 171.733 179.159C172.339 179.159 172.858 179.314 173.29 179.625C173.722 179.936 173.997 180.352 174.114 180.875H174.205C174.368 180.356 174.686 179.941 175.159 179.631C175.633 179.316 176.192 179.159 176.836 179.159C177.661 179.159 178.332 179.424 178.847 179.955C179.362 180.481 179.62 181.205 179.62 182.125V188H176.841V182.761C176.841 182.326 176.73 181.994 176.506 181.767C176.283 181.536 175.993 181.42 175.637 181.42C175.254 181.42 174.953 181.545 174.733 181.795C174.517 182.042 174.409 182.373 174.409 182.79V188H171.739V182.733C171.739 182.328 171.629 182.008 171.409 181.773C171.19 181.538 170.9 181.42 170.54 181.42C170.298 181.42 170.084 181.479 169.898 181.597C169.713 181.71 169.567 181.873 169.461 182.085C169.358 182.297 169.307 182.547 169.307 182.835V188H166.529ZM181.981 188V179.273H184.623V180.875H184.72C184.902 180.345 185.209 179.926 185.64 179.619C186.072 179.312 186.587 179.159 187.186 179.159C187.792 179.159 188.311 179.314 188.743 179.625C189.174 179.936 189.449 180.352 189.567 180.875H189.657C189.82 180.356 190.139 179.941 190.612 179.631C191.085 179.316 191.644 179.159 192.288 179.159C193.114 179.159 193.784 179.424 194.299 179.955C194.815 180.481 195.072 181.205 195.072 182.125V188H192.294V182.761C192.294 182.326 192.182 181.994 191.959 181.767C191.735 181.536 191.445 181.42 191.089 181.42C190.707 181.42 190.406 181.545 190.186 181.795C189.97 182.042 189.862 182.373 189.862 182.79V188H187.192V182.733C187.192 182.328 187.082 182.008 186.862 181.773C186.642 181.538 186.353 181.42 185.993 181.42C185.75 181.42 185.536 181.479 185.351 181.597C185.165 181.71 185.019 181.873 184.913 182.085C184.811 182.297 184.76 182.547 184.76 182.835V188H181.981Z" fill="#595959"/>
<ellipse cx="180.827" cy="32.3757" rx="1.32107" ry="2.33768" transform="rotate(-14.0814 180.827 32.3757)" fill="#00DEA2"/>
<path d="M187.614 42.7412C186.305 43.7881 182.589 45.1753 178.192 42.3486" stroke="#00DEA2" stroke-width="2" stroke-linecap="round" stroke-linejoin="round"/>
<path fill-rule="evenodd" clip-rule="evenodd" d="M187.419 52.9474C188.204 43.0019 187.419 22.7186 176.427 17.6147C165.434 12.5108 156.012 20.7554 154.442 25.0738C152.871 29.3923 152.086 38.422 159.153 44.3108C164.806 49.0219 162.293 58.0514 160.33 61.9772C157.452 64.071 151.222 70.143 149.338 77.6807C146.983 87.1028 148.945 106.339 151.301 113.799C153.657 121.258 156.797 136.569 154.834 140.887C154.372 141.905 153.56 143.162 152.611 144.634C149.884 148.86 146.018 154.851 146 162H192.055C193.008 145.912 193.319 129.184 192.13 121.258C190.246 108.695 190.037 102.675 190.167 101.236C190.822 100.843 192.13 99.1159 192.13 95.3471C192.13 95.2219 192.131 95.0909 192.131 94.9542C192.142 89.9467 192.168 77.3051 179.175 63.5476C178.39 61.9772 177.291 58.0514 179.175 54.9107C181.007 54.9105 185.22 54.5176 187.419 52.9474Z" fill="#00DEA2" fill-opacity="0.3"/>
<path d="M187.419 52.9474L188.145 53.9647C188.446 53.7502 188.636 53.4138 188.665 53.0458L187.419 52.9474ZM154.442 25.0738L153.267 24.6466L153.267 24.6466L154.442 25.0738ZM159.153 44.3108L159.953 43.3505L159.953 43.3505L159.153 44.3108ZM160.33 61.9772L161.066 62.9881C161.228 62.8703 161.359 62.7154 161.449 62.5362L160.33 61.9772ZM149.338 77.6807L148.125 77.3775L148.125 77.3775L149.338 77.6807ZM151.301 113.799L150.109 114.175L150.109 114.175L151.301 113.799ZM154.834 140.887L155.972 141.404L155.972 141.404L154.834 140.887ZM152.611 144.634L151.56 143.956L151.56 143.956L152.611 144.634ZM146 162L144.75 161.997C144.749 162.329 144.881 162.648 145.115 162.883C145.35 163.118 145.668 163.25 146 163.25V162ZM192.055 162V163.25C192.716 163.25 193.263 162.735 193.302 162.074L192.055 162ZM192.13 121.258L193.367 121.072L193.367 121.072L192.13 121.258ZM190.167 101.236L189.524 100.164C189.182 100.369 188.959 100.725 188.923 101.123L190.167 101.236ZM192.131 94.9542L193.381 94.9568L193.381 94.9568L192.131 94.9542ZM179.175 63.5476L178.057 64.1066C178.112 64.216 178.182 64.3169 178.266 64.4058L179.175 63.5476ZM179.175 54.9107L179.175 53.6607C178.736 53.6607 178.329 53.8911 178.103 54.2675L179.175 54.9107ZM175.9 18.7484C180.828 21.0364 183.661 26.8501 185.116 33.7244C186.556 40.5214 186.56 47.9502 186.173 52.8491L188.665 53.0458C189.064 47.9991 189.067 40.3136 187.562 33.2065C186.074 26.1768 183.018 19.2968 176.953 16.4809L175.9 18.7484ZM155.616 25.501C156.265 23.7182 158.739 20.7896 162.46 18.9289C166.106 17.1058 170.807 16.3834 175.9 18.7484L176.953 16.4809C171.054 13.742 165.547 14.59 161.342 16.6928C157.211 18.7581 154.189 22.1109 153.267 24.6466L155.616 25.501ZM159.953 43.3505C153.47 37.9478 154.131 29.5856 155.616 25.501L153.267 24.6466C151.612 29.1989 150.703 38.8962 158.353 45.2711L159.953 43.3505ZM161.449 62.5362C162.489 60.4558 163.669 57.0478 163.846 53.5009C164.024 49.95 163.196 46.0534 159.953 43.3505L158.353 45.2711C160.762 47.2793 161.505 50.253 161.349 53.376C161.193 56.5031 160.135 59.5728 159.212 61.4182L161.449 62.5362ZM150.551 77.9838C152.335 70.8473 158.304 64.9964 161.066 62.9881L159.595 60.9663C156.599 63.1456 150.11 69.4387 148.125 77.3775L150.551 77.9838ZM152.493 113.422C151.358 109.828 150.288 103.266 149.8 96.3873C149.311 89.4953 149.423 82.4946 150.551 77.9838L148.125 77.3775C146.898 82.2888 146.813 89.6175 147.306 96.5642C147.8 103.524 148.888 110.31 150.109 114.175L152.493 113.422ZM155.972 141.404C156.591 140.044 156.747 138.024 156.691 135.85C156.634 133.616 156.344 131.006 155.922 128.326C155.078 122.968 153.69 117.214 152.493 113.422L150.109 114.175C151.267 117.842 152.627 123.474 153.452 128.715C153.865 131.335 154.139 133.829 154.192 135.914C154.247 138.058 154.06 139.571 153.697 140.37L155.972 141.404ZM153.661 145.312C154.59 143.872 155.463 142.525 155.972 141.404L153.697 140.37C153.281 141.284 152.531 142.453 151.56 143.956L153.661 145.312ZM147.25 162.003C147.267 155.273 150.91 149.576 153.661 145.312L151.56 143.956C148.858 148.144 144.769 154.43 144.75 161.997L147.25 162.003ZM146 163.25H192.055V160.75H146V163.25ZM190.894 121.443C192.061 129.219 191.761 145.817 190.807 161.926L193.302 162.074C194.255 146.006 194.578 129.149 193.367 121.072L190.894 121.443ZM188.923 101.123C188.776 102.732 189.011 108.892 190.894 121.443L193.367 121.072C191.48 108.498 191.297 102.619 191.412 101.349L188.923 101.123ZM190.88 95.3471C190.88 97.0878 190.578 98.2902 190.246 99.0642C190.079 99.4523 189.906 99.7289 189.764 99.9127C189.613 100.107 189.518 100.168 189.524 100.164L190.811 102.308C191.441 101.93 192.073 101.144 192.543 100.051C193.028 98.9208 193.38 97.3752 193.38 95.3471H190.88ZM190.881 94.9515C190.881 95.0879 190.88 95.2203 190.88 95.3471H193.38C193.38 95.2235 193.381 95.0938 193.381 94.9568L190.881 94.9515ZM178.266 64.4058C190.94 77.8248 190.891 90.0806 190.881 94.9516L193.381 94.9568C193.392 89.8128 193.397 76.7854 180.084 62.6893L178.266 64.4058ZM178.103 54.2675C176.984 56.1321 176.776 58.1859 176.929 59.9269C177.081 61.6629 177.598 63.189 178.057 64.1066L180.293 62.9885C179.967 62.3358 179.542 61.1137 179.419 59.709C179.297 58.3093 179.481 56.8299 180.247 55.5538L178.103 54.2675ZM186.693 51.9302C185.818 52.5547 184.432 53.0049 182.927 53.2896C181.454 53.5683 180.02 53.6606 179.175 53.6607L179.175 56.1607C180.161 56.1606 181.751 56.0563 183.392 55.746C185.001 55.4416 186.821 54.9103 188.145 53.9647L186.693 51.9302Z" fill="#00DEA2"/>
<path d="M170 100L170 37" stroke="#3D3D3D" stroke-linecap="round"/>
<path d="M159 100L159 83" stroke="#3D3D3D" stroke-linecap="round"/>
<path d="M159 98H170" stroke="#3D3D3D" stroke-linecap="round"/>
<circle cx="170" cy="36" r="2" fill="#FF4A4A"/>
<circle cx="159" cy="83" r="2" fill="#FF4A4A"/>
<path d="M146.502 110.23H154.872V111.28H146.502V110.23ZM147.432 111.97H153.862V114.89H152.532V113.01H147.432V111.97ZM150.022 105.66H151.342V107.02H150.022V105.66ZM149.942 107.12H151.112V107.31C151.112 108.71 149.772 109.7 147.252 109.88L146.852 108.88C149.082 108.74 149.942 108.02 149.942 107.31V107.12ZM150.252 107.12H151.422V107.31C151.422 108.02 152.282 108.74 154.512 108.88L154.112 109.88C151.582 109.7 150.252 108.71 150.252 107.31V107.12ZM147.302 106.49H154.072V107.52H147.302V106.49ZM160.721 107.87H162.481V108.95H160.721V107.87ZM162.121 105.63H163.451V111.13H162.121V105.63ZM160.311 111.33C162.271 111.33 163.481 112 163.481 113.12C163.481 114.25 162.271 114.9 160.311 114.9C158.351 114.9 157.141 114.25 157.141 113.12C157.141 112 158.351 111.33 160.311 111.33ZM160.311 112.34C159.111 112.34 158.471 112.59 158.471 113.12C158.471 113.64 159.111 113.89 160.311 113.89C161.521 113.89 162.161 113.64 162.161 113.12C162.161 112.59 161.521 112.34 160.311 112.34ZM157.841 106.56H158.921V107.14C158.921 108.91 158.101 110.53 156.331 111.13L155.651 110.08C157.181 109.56 157.841 108.33 157.841 107.14V106.56ZM158.121 106.56H159.191V107.14C159.191 108.23 159.821 109.36 161.281 109.85L160.631 110.9C158.911 110.33 158.121 108.79 158.121 107.14V106.56ZM156.011 106.19H160.991V107.25H156.011V106.19ZM171.32 105.63H172.65V114.89H171.32V105.63ZM169.53 109.18H171.96V110.26H169.53V109.18ZM168.28 106.59H169.59C169.59 109.4 168.7 111.69 165.49 113.3L164.79 112.26C167.41 110.96 168.28 109.28 168.28 106.83V106.59ZM165.23 106.59H168.98V107.64H165.23V106.59ZM180.479 105.62H181.809V114.91H180.479V105.62ZM174.599 111.67H175.419C177.059 111.67 178.369 111.61 179.839 111.36L179.969 112.43C178.469 112.7 177.109 112.75 175.419 112.75H174.599V111.67ZM174.589 106.41H178.959V109.99H175.949V112.07H174.599V108.94H177.599V107.47H174.589V106.41Z" fill="#3D3D3D"/>
<defs>
<filter id="filter0_d_1381_1111" x="0" y="0" width="340" height="215" filterUnits="userSpaceOnUse" color-interpolation-filters="sRGB">
<feFlood flood-opacity="0" result="BackgroundImageFix"/>
<feColorMatrix in="SourceAlpha" type="matrix" values="0 0 0 0 0 0 0 0 0 0 0 0 0 0 0 0 0 0 127 0" result="hardAlpha"/>
<feOffset dy="4"/>
<feGaussianBlur stdDeviation="2.5"/>
<feComposite in2="hardAlpha" operator="out"/>
<feColorMatrix type="matrix" values="0 0 0 0 0 0 0 0 0 0 0 0 0 0 0 0 0 0 0.1 0"/>
<feBlend mode="normal" in2="BackgroundImageFix" result="effect1_dropShadow_1381_1111"/>
<feBlend mode="normal" in="SourceGraphic" in2="effect1_dropShadow_1381_1111" result="shape"/>
</filter>
</defs>
</svg>
