<svg width="360" height="640" viewBox="0 0 360 640" fill="none" xmlns="http://www.w3.org/2000/svg">
<path d="M180.043 368.618H180.243C175.463 368.618 174.433 449.988 172.743 457.488C171.053 464.988 168.713 477.738 169.183 489.178C169.683 501.428 173.493 521.428 171.623 536.238C169.743 551.048 168.243 575.798 171.243 588.358C174.243 600.918 172.933 619.668 172.933 619.668C172.933 619.668 138.433 619.858 135.813 619.668C133.193 619.478 132.623 614.788 136.373 613.858C140.123 612.918 151.933 599.418 153.813 586.668C155.693 573.918 140.693 542.798 138.253 533.608C135.813 524.418 133.373 503.418 134.773 491.418C136.163 479.418 137.503 478.668 138.443 462.168C139.383 445.668 125.053 411.208 119.883 388.568C119.883 388.568 107.323 348.068 127.383 323.318C147.443 298.568 164.483 311.528 180.143 310.398" stroke="#00DEA2" stroke-width="3" stroke-miterlimit="10"/>
<path d="M180.433 368.617H180.233C185.013 368.617 186.043 449.987 187.733 457.487C189.423 464.987 191.763 477.737 191.293 489.177C190.793 501.427 186.983 521.427 188.853 536.237C190.723 551.047 192.223 575.797 189.223 588.357C186.223 600.917 187.533 619.667 187.533 619.667C187.533 619.667 222.033 619.857 224.653 619.667C227.273 619.477 227.843 614.797 224.093 613.857C220.343 612.917 208.533 599.417 206.653 586.667C204.783 573.917 219.773 542.797 222.213 533.607C224.653 524.417 227.093 503.417 225.693 491.417C224.303 479.417 222.963 478.667 222.023 462.167C221.083 445.667 235.413 411.207 240.583 388.567C240.583 388.567 253.143 348.067 233.083 323.317C213.053 298.587 196.003 311.527 180.343 310.397" stroke="#00DEA2" stroke-width="3" stroke-miterlimit="10"/>
</svg>
