<svg width="360" height="640" viewBox="0 0 360 640" fill="none" xmlns="http://www.w3.org/2000/svg">
<path d="M179.808 113.021C179.808 113.021 202.447 111.628 204.228 131.663C205.128 141.766 204.228 143.827 204.228 143.827C204.228 143.827 210.51 142.93 210.242 149.732C209.973 156.534 203.51 159.664 203.51 159.664C203.51 159.664 201.949 171.436 194.987 174.642C188.973 177.418 198.75 193.656 221.503 195.259C233.311 196.098 249.111 206.125 251.534 230.405C253.957 254.686 253.286 253.617 258.266 267.298C263.246 280.979 257.816 286.837 263.562 307.587C269.307 328.337 265.592 367.863 266.971 388.623C267.689 399.394 254.943 408.123 252.97 406.692C250.998 405.261 260.153 398.106 260.689 392.029C261.225 385.952 259.434 378.796 255.479 376.821C251.524 374.847 248.479 385.408 245.961 383.614C243.442 381.821 254.579 371.45 250.806 358.571C247.033 345.691 234.651 312.424 236.978 298.113C239.305 283.803 222.796 252.224 222.078 251.432C218.199 247.139 217.405 307.234 223.438 326.553C227.383 339.204 232.315 379.216 230.514 399.394C228.724 419.572 219.023 453.917 219.923 469.659C220.823 485.4 222.106 486.116 223.438 497.564C224.769 509.013 222.432 529.047 220.105 537.815C217.778 546.583 203.404 576.272 205.204 588.436C206.995 600.6 218.314 613.48 221.905 614.377C225.496 615.273 224.96 619.738 222.442 619.919C219.923 620.101 186.895 619.919 186.895 619.919C186.895 619.919 185.64 602.031 188.513 590.049C191.386 578.066 189.95 554.453 188.159 540.324C186.368 526.195 190.017 507.114 190.495 495.427C190.946 484.513 188.705 472.349 187.086 465.194C185.468 458.039 184.482 380.409 179.904 380.409H180.096C175.518 380.409 174.532 458.039 172.914 465.194C171.295 472.349 169.054 484.513 169.505 495.427C169.983 507.114 173.632 526.195 171.841 540.324C170.05 554.453 168.614 578.066 171.487 590.049C174.36 602.031 173.105 619.919 173.105 619.919C173.105 619.919 140.067 620.101 137.558 619.919C135.049 619.738 134.504 615.273 138.095 614.377C141.686 613.48 152.995 600.6 154.796 588.436C156.586 576.272 142.232 546.583 139.895 537.815C137.558 529.047 135.231 509.013 136.562 497.564C137.894 486.116 139.177 485.4 140.077 469.659C140.977 453.917 131.276 419.572 129.486 399.394C127.695 379.216 132.617 339.194 136.562 326.553C142.595 307.234 141.801 247.139 137.922 251.432C137.204 252.234 120.685 283.803 123.022 298.113C125.358 312.424 112.967 345.691 109.194 358.571C105.421 371.45 116.558 381.821 114.039 383.614C111.521 385.408 108.476 374.847 104.521 376.821C100.566 378.796 98.7749 385.942 99.3112 392.029C99.8474 398.115 109.002 405.261 107.03 406.692C105.057 408.123 92.311 399.394 93.0292 388.623C94.4178 367.873 90.6926 328.337 96.4383 307.587C102.184 286.837 96.7543 280.979 101.734 267.298C106.714 253.617 106.043 254.686 108.466 230.405C110.889 206.125 126.689 196.089 138.497 195.259C161.259 193.646 171.027 177.409 165.013 174.642C158.051 171.436 156.491 159.664 156.491 159.664C156.491 159.664 150.027 156.534 149.758 149.732C149.49 142.939 155.772 143.827 155.772 143.827C155.772 143.827 154.872 141.766 155.772 131.663C157.534 111.628 180.172 113.021 180.172 113.021" stroke="#00DEA2" stroke-width="3" stroke-miterlimit="10"/>
</svg>
