<svg width="360" height="640" viewBox="0 0 360 640" fill="none" xmlns="http://www.w3.org/2000/svg">
<path d="M179.766 115.003C196.942 114.777 210.853 128.501 211.944 138.596C213.035 148.691 210.446 157.956 207.173 161.775C203.901 165.593 193.248 175.957 195.982 186.044C198.716 196.132 217.536 212.227 218.765 228.452C219.87 243.078 217.136 258.795 209.37 281.057C204.912 293.828 198.447 321.589 202.679 337.887C205.828 350.026 214.816 362.979 212.358 376.274C209.9 389.569 200.425 401.503 201.858 413.773C203.29 426.042 206.155 456.115 204.723 476.567C203.29 497.018 216.176 508.887 215.565 537.317C214.954 565.747 209.631 582.525 213.522 598.475C217.412 614.424 219.041 618.519 206.366 619.544C193.691 620.57 150.125 619.544 150.125 619.544C150.125 619.544 140.512 618.519 155.034 612.388C169.556 606.257 184.281 607.886 188.572 590.504C192.862 573.121 179.366 533.23 181.002 514.415C182.638 495.6 140.803 453.468 146.991 375.736C149.5 344.644 137.916 277.552 146.366 255.464C154.816 233.376 168.123 213.55 166.269 202.692C163.469 186.328 153.82 191.244 147.042 183.768C143.057 179.368 146.228 165.666 146.228 165.666C146.228 165.666 140.09 164.64 141.116 160.553C142.141 156.465 145.82 159.527 148.889 147.462C151.958 135.396 159.113 115.279 179.766 115.003Z" stroke="#00DEA2" stroke-width="3" stroke-miterlimit="10"/>
</svg>
