<svg width="360" height="640" viewBox="0 0 360 640" fill="none" xmlns="http://www.w3.org/2000/svg">
<path d="M180.234 115.003C163.058 114.777 149.147 128.501 148.056 138.596C146.965 148.691 149.554 157.956 152.827 161.775C156.099 165.593 166.752 175.957 164.018 186.044C161.284 196.132 142.464 212.227 141.235 228.452C140.13 243.078 142.864 258.795 150.63 281.057C155.088 293.828 161.553 321.589 157.321 337.887C154.172 350.026 145.184 362.979 147.642 376.274C150.1 389.569 159.575 401.503 158.142 413.773C156.71 426.042 153.845 456.115 155.277 476.567C156.71 497.018 143.824 508.887 144.435 537.317C145.046 565.747 150.369 582.525 146.478 598.475C142.588 614.424 140.959 618.519 153.634 619.544C166.309 620.57 209.875 619.544 209.875 619.544C209.875 619.544 219.488 618.519 204.966 612.388C190.444 606.257 175.719 607.886 171.428 590.504C167.138 573.121 180.634 533.23 178.998 514.415C177.362 495.6 219.197 453.468 213.009 375.736C210.5 344.644 222.084 277.552 213.634 255.464C205.184 233.376 191.877 213.55 193.731 202.692C196.531 186.328 206.18 191.244 212.958 183.768C216.943 179.368 213.772 165.666 213.772 165.666C213.772 165.666 219.91 164.64 218.884 160.553C217.859 156.465 214.18 159.527 211.111 147.462C208.042 135.396 200.887 115.279 180.234 115.003Z" stroke="#00DEA2" stroke-width="3" stroke-miterlimit="10"/>
</svg>
